<?xml version="1.0" encoding="UTF-8"?>
<svg width="150px" height="126px" viewBox="0 0 150 126" version="1.1" xmlns="http://www.w3.org/2000/svg" xmlns:xlink="http://www.w3.org/1999/xlink">
    <title>logo-full</title>
    <defs>
        <linearGradient x1="100%" y1="50%" x2="0%" y2="50%" id="linearGradient-1">
            <stop stop-color="#BB2325" offset="0%"></stop>
            <stop stop-color="#BB2325" offset="7.70274143%"></stop>
            <stop stop-color="#E27527" offset="33.7989976%"></stop>
            <stop stop-color="#E27527" offset="47.2747967%"></stop>
            <stop stop-color="#70BE44" offset="77.1256568%"></stop>
            <stop stop-color="#70BE44" offset="90.5318342%"></stop>
            <stop stop-color="#37A5E9" offset="96.7328214%"></stop>
            <stop stop-color="#37A5E9" offset="100%"></stop>
        </linearGradient>
    </defs>
    <g id="logo-full" stroke="none" stroke-width="1" fill="none" fill-rule="evenodd">
        <g id="Group-17-Copy" transform="translate(1.316423, 1.000000)">
            <path d="M0.834189574,91.8974789 C2.4447546,106.762657 34.789776,118.6267 74.4551323,118.6267 C111.365703,118.6267 141.937435,108.353363 147.303435,94.9484495 C147.346137,95.3325082 147.367153,95.7194544 147.367153,96.1082587 C147.367153,111.512442 114.377892,124 73.6835766,124 C32.9892609,124 0,111.512442 0,96.1082587 C0,94.6769243 0.284824572,93.2707716 0.834189574,91.8974789 Z M48.1450448,66.0954815 L48.1450804,81.4182339 C48.1450804,85.5747862 50.8640575,88.52523 55.2520765,88.52523 C59.6400956,88.52523 62.3590727,85.5747862 62.3590727,81.4182339 L62.3590311,66.0954815 L69.3708836,66.0954815 L69.3650079,66.1062603 L69.3802303,66.0954815 L69.3802303,93.1652157 C69.3802303,102.24962 64.3608552,107.335316 55.2993374,107.335316 C47.306085,107.335316 42.9484551,103.543465 41.3776896,97.5352515 L48.3520303,97.5351799 C49.2832623,99.8774434 51.7104718,101.394337 55.1450262,101.394337 C59.5991405,101.394337 62.3590727,98.843181 62.3590727,95.2491414 L62.3591785,90.3157308 C60.7117549,93.1953399 57.9158802,94.929143 53.8632762,94.929143 C46.4871771,94.929143 41.2762343,89.3868202 41.1727531,81.3247889 L41.1711836,81.0797168 L41.1711836,66.0954815 L48.1450448,66.0954815 Z M105.203187,53.6335429 L105.203187,80.2329283 C105.203187,88.488974 99.6847735,95.258977 89.9263826,95.258977 C80.3994584,95.258977 74.6495782,88.488974 74.6495782,80.2329283 C74.6495782,70.9738601 80.9530586,65.2840351 89.1548268,65.2840351 C92.8793513,65.2840351 96.4273276,67.1928212 98.2591409,70.0828785 L98.259185,53.6335429 L105.203187,53.6335429 Z M124.759999,65.2846055 C133.952997,65.2846055 139.916654,71.4746284 140.035008,79.9939182 L140.036803,80.2527875 L140.036803,82.7154391 L116.739294,82.7155354 C117.580553,86.2932089 120.344381,88.9178712 124.723809,88.9700067 L124.857013,88.9707974 C128.194413,88.9707974 130.331334,87.9168727 131.613017,86.2296824 L138.9496,86.2295715 C136.814202,91.6630347 131.671724,95.2209696 124.759999,95.2209696 C115.551297,95.2209696 109.483194,88.5194862 109.483194,80.2527875 C109.483194,71.9860889 115.628452,65.2846055 124.759999,65.2846055 Z M20.2919169,65.9784353 L20.2919169,94.3716879 L13.3479149,94.3716879 L13.3479149,65.9784353 L20.2919169,65.9784353 Z M34.7200099,53.6335429 L34.7200099,94.3716879 L27.7760079,94.3716879 L27.7760079,53.6335429 L34.7200099,53.6335429 Z M89.9248256,71.6879481 C84.8385066,71.6879481 81.5534455,75.5395738 81.5534455,80.290795 C81.5534455,85.0420161 84.9156621,88.8936419 89.9248256,88.8936419 C94.9339891,88.8936419 98.2962058,85.0420161 98.2962058,80.290795 C98.2962058,75.5395738 95.0111447,71.6879481 89.9248256,71.6879481 Z M124.857013,71.5336369 C120.899774,71.5336369 118.029516,73.7831333 116.943748,77.1409618 L116.911393,77.2430664 L132.808823,77.2430664 C131.796356,73.9267494 129.057457,71.5336369 124.857013,71.5336369 Z M17.4438947,57.060232 C19.041839,57.060232 20.3372288,58.3556218 20.3372288,59.9535661 C20.3372288,61.5515105 19.041839,62.8469003 17.4438947,62.8469003 C15.8459503,62.8469003 14.5505605,61.5515105 14.5505605,59.9535661 C14.5505605,58.3556218 15.8459503,57.060232 17.4438947,57.060232 Z" id="Combined-Shape" fill="#127ABB"></path>
            <path d="M52.9740381,0 C55.275078,0 57.1404393,1.86536135 57.1404393,4.16640119 C57.1404393,5.57317327 56.4432316,6.81710377 55.3755082,7.57150066 L71.7206937,40.0957167 C71.8965247,40.0435757 72.082737,40.0155835 72.2754873,40.0155835 C72.9929249,40.0155835 73.6197854,40.4033902 73.9578775,40.9808125 L82.7118163,38.0129235 C82.5610013,37.417321 82.4808694,36.7935537 82.4808694,36.1510705 C82.4808694,31.9751093 85.8661548,28.5898239 90.042116,28.5898239 C94.2180771,28.5898239 97.6033626,31.9751093 97.6033626,36.1510705 C97.6033626,36.8510494 97.5082468,37.5288128 97.330235,38.1721412 L100.134598,39.2291516 C100.313492,39.0438863 100.564461,38.9286713 100.84234,38.9286713 C100.96222,38.9286713 101.077091,38.9501145 101.183328,38.9893745 L105.33447,34.5688869 C105.310678,34.4700647 105.298074,34.3668836 105.298074,34.2607588 C105.298074,33.5363574 105.885318,32.949114 106.609719,32.949114 C107.334121,32.949114 107.921364,33.5363574 107.921364,34.2607588 C107.921364,34.555271 107.824298,34.8271123 107.660413,35.0460368 L113.909578,43.5941039 C114.182916,43.4479698 114.495176,43.365117 114.826788,43.365117 C115.902737,43.365117 116.774967,44.2373461 116.774967,45.3132953 C116.774967,45.3772503 116.771885,45.4404856 116.765862,45.5028606 L122.350941,47.6093355 C123.160571,45.6216587 125.11196,44.2205625 127.390593,44.2205625 C130.394728,44.2205625 132.830061,46.6558953 132.830061,49.6600307 C132.830061,52.664166 130.394728,55.0994989 127.390593,55.0994989 C124.386457,55.0994989 121.951124,52.664166 121.951124,49.6600307 C121.951124,49.125148 122.028328,48.6082972 122.172199,48.1200137 L116.637767,46.0328645 C116.535673,46.2895894 116.380569,46.5194771 116.18597,46.7090132 L124.346167,57.8683949 C124.586478,57.7678891 124.850285,57.712372 125.127058,57.712372 C126.245619,57.712372 127.152392,58.6191449 127.152392,59.7377059 C127.152392,60.856267 126.245619,61.7630398 125.127058,61.7630398 C124.008497,61.7630398 123.101724,60.856267 123.101724,59.7377059 C123.101724,59.0901423 123.405633,58.5135605 123.878604,58.1428082 L115.750873,47.0287937 C115.475901,47.1772242 115.161183,47.2614736 114.826788,47.2614736 C113.750839,47.2614736 112.87861,46.3892445 112.87861,45.3132953 C112.87861,45.0829481 112.918587,44.8619381 112.991982,44.6568249 L101.698499,40.3972355 C101.529431,40.69515 101.209357,40.8961385 100.84234,40.8961385 C100.638161,40.8961385 100.448511,40.8339343 100.291306,40.7274428 L83.8768498,58.2035696 C84.0919651,58.5698685 84.2153129,58.996557 84.2153129,59.4520549 C84.2153129,60.8156341 83.1099136,61.9210334 81.7463344,61.9210334 C80.3827553,61.9210334 79.2773559,60.8156341 79.2773559,59.4520549 C79.2773559,58.7817347 79.5444862,58.1738061 79.9780996,57.7289163 L72.9706916,43.7842396 C72.7547694,43.866745 72.5204063,43.9119402 72.2754873,43.9119402 C71.4715821,43.9119402 70.7814029,43.4250211 70.4837843,42.7300176 L59.1180559,46.5842278 C59.1868949,46.8368712 59.2236399,47.102748 59.2236399,47.377207 C59.2236399,49.0390691 57.8764345,50.3862745 56.2145724,50.3862745 C54.5527103,50.3862745 53.2055049,49.0390691 53.2055049,47.377207 C53.2055049,46.5091808 53.573049,45.7269992 54.1609996,45.1777998 L38.4040273,31.3943171 C38.0579315,31.7803615 37.55538,32.0232471 36.9960994,32.0232471 C36.5965974,32.0232471 36.2260409,31.8993159 35.9207781,31.6878016 L19.3042406,57.7375153 C19.9358106,58.2682651 20.3372288,59.0640375 20.3372288,59.9535661 C20.3372288,61.5515105 19.041839,62.8469003 17.4438947,62.8469003 C15.8459503,62.8469003 14.5505605,61.5515105 14.5505605,59.9535661 C14.5505605,58.3556218 15.8459503,57.060232 17.4438947,57.060232 C17.9583528,57.060232 18.4414505,57.1945014 18.8600564,57.4299087 L35.51873,31.3123099 C35.2603024,30.9890082 35.1057878,30.5790162 35.1057878,30.1329354 C35.1057878,29.6487037 35.2878622,29.2069977 35.5872845,28.872544 L33.1404563,26.6083015 C32.6881212,26.9787449 32.1097564,27.2010235 31.4794756,27.2010235 C31.0970993,27.2010235 30.7338309,27.1192125 30.4062195,26.9721395 L19.5484863,41.0370814 C20.2226936,41.650958 20.6458511,42.5357762 20.6458511,43.5194281 C20.6458511,45.3730435 19.1431989,46.8756957 17.2895835,46.8756957 C15.4359681,46.8756957 13.9333159,45.3730435 13.9333159,43.5194281 C13.9333159,41.6658127 15.4359681,40.1631605 17.2895835,40.1631605 C17.9650105,40.1631605 18.5938382,40.3626757 19.1203466,40.7059861 L29.9352085,26.6985468 C29.2811723,26.2214943 28.856186,25.4492445 28.856186,24.5777338 C28.856186,23.128931 30.0306728,21.9544442 31.4794756,21.9544442 C32.9282785,21.9544442 34.1027653,23.128931 34.1027653,24.5777338 C34.1027653,25.201078 33.8853524,25.7736426 33.5222203,26.2237341 L36.0053624,28.5227431 C36.2934493,28.345108 36.6328061,28.2426238 36.9960994,28.2426238 C37.1499583,28.2426238 37.2995238,28.2610055 37.4427198,28.2956928 L50.6339369,7.6140434 C49.5316382,6.86439813 48.8076369,5.59994944 48.8076369,4.16640119 C48.8076369,1.86536135 50.6729983,0 52.9740381,0 Z M82.8633434,38.5319684 L74.1636355,41.4819774 C74.202833,41.6360614 74.2236656,41.7974788 74.2236656,41.9637618 C74.2236656,42.6017333 73.9170109,43.1680818 73.4430608,43.5234479 L80.4064662,57.3779136 C80.7923715,57.1281103 81.2524157,56.9830764 81.7463344,56.9830764 C82.4573094,56.9830764 83.0980951,57.2835921 83.5485987,57.7645303 L99.9421505,40.3097416 C99.8884378,40.1882305 99.8586062,40.0538015 99.8586062,39.9124049 C99.8586062,39.8431812 99.8657563,39.7756275 99.8793581,39.710442 L97.167271,38.6879542 C96.1246366,41.6161176 93.3281731,43.7123171 90.042116,43.7123171 C86.6979973,43.7123171 83.8609264,41.5413875 82.8633434,38.5319684 Z M54.9131758,7.85498656 C54.3339811,8.1601059 53.6741773,8.33280238 52.9740381,8.33280238 C52.3001282,8.33280238 51.6635882,8.17280296 51.1003327,7.88871889 L37.9522267,28.5019098 C38.5111862,28.8302864 38.8864111,29.4377917 38.8864111,30.1329354 C38.8864111,30.4215086 38.8217483,30.694979 38.7061218,30.9396476 L54.594359,44.8411388 C55.0620498,44.5417246 55.6180396,44.3681395 56.2145724,44.3681395 C57.4109881,44.3681395 58.44432,45.0663849 58.9292918,46.0775998 L70.3423249,42.2068302 C70.332414,42.1271993 70.3273089,42.0460768 70.3273089,41.9637618 C70.3273089,41.2727968 70.6870245,40.6658478 71.2294038,40.3199667 Z M105.589696,35.0854277 L101.62135,39.3115985 C101.749709,39.4777839 101.826073,39.6861764 101.826073,39.9124049 L101.823316,39.866 L113.245479,44.1751283 C113.313308,44.0810556 113.389325,43.9932788 113.472485,43.9128421 L107.252399,35.4044308 C107.062472,35.511388 106.843221,35.5724036 106.609719,35.5724036 C106.197761,35.5724036 105.83016,35.3824855 105.589696,35.0854277 Z" id="Combined-Shape" fill="url(#linearGradient-1)"></path>
        </g>
    </g>
</svg>