<?xml version="1.0" encoding="UTF-8"?>
<svg width="72px" height="35px" viewBox="0 0 72 35" version="1.1" xmlns="http://www.w3.org/2000/svg" xmlns:xlink="http://www.w3.org/1999/xlink">
    <title>logo</title>
    <g id="logo" stroke="none" stroke-width="1" fill="none" fill-rule="evenodd">
        <path d="M1.3971589,19.2037068 C2.16211578,26.2762995 17.5509443,31.921094 36.4227157,31.921094 C53.9840598,31.921094 68.5293678,27.033014 71.0813159,20.6550767 C71.1012727,20.8384735 71.1112819,21.0226631 71.1112819,21.2077377 C71.1112819,28.53642 55.4163369,34.4774908 36.055641,34.4774908 C16.6949451,34.4774908 1,28.53642 1,21.2077377 C1,20.5265192 1.1356066,19.8572899 1.3971589,19.2037068 Z M23.905449,6.92888218 L23.9054659,14.2188229 C23.9054659,16.196341 25.1990444,17.6000419 27.2866849,17.6000419 C29.3743254,17.6000419 30.6679038,16.196341 30.6679038,14.2188229 L30.667884,6.92888218 L34.0038375,6.92888218 L34.0010421,6.93401032 L34.0082843,6.92888218 L34.0082843,19.8075578 C34.0082843,24.1295471 31.6202703,26.5491138 27.3091696,26.5491138 C23.5063061,26.5491138 21.4331235,24.7451055 20.6858174,21.8866426 L24.0039242,21.8866086 C24.4469664,23.000962 25.6017338,23.722638 27.2357547,23.722638 C29.3548407,23.722638 30.6679038,22.5089022 30.6679038,20.7990047 L30.6679542,18.4518891 C29.8841772,19.8218897 28.554014,20.6467625 26.6259503,20.6467625 C23.1167031,20.6467625 20.6375491,18.0099513 20.5883169,14.1743656 L20.5875702,14.0577703 L20.5875702,6.92888218 L23.905449,6.92888218 Z M51.0513862,1 L51.0513862,13.6549029 C51.0513862,17.5827927 48.4259501,20.8036841 43.7833057,20.8036841 C39.2507837,20.8036841 36.5152252,17.5827927 36.5152252,13.6549029 C36.5152252,9.24981577 39.5141641,6.54282909 43.4162309,6.54282909 C45.1887836,6.54282909 46.8772872,7.45154194 47.7485416,8.82726359 L47.7477133,1 L51.0513862,1 Z M60.3557197,6.54310044 C64.7293737,6.54310044 67.5666385,9.48806093 67.6229464,13.5411916 L67.6238002,13.6643511 L67.6238002,14.8359803 L56.5397953,14.8360261 C56.9400322,16.5381372 58.2549488,17.7868445 60.3385023,17.8116485 L60.4018754,17.8120247 C61.9896741,17.8120247 63.0063337,17.3106103 63.6161065,16.5079139 L67.1065533,16.5078612 C66.0906179,19.0928814 63.6440368,20.7856017 60.3557197,20.7856017 C55.9745949,20.7856017 53.0876391,17.5973092 53.0876391,13.6643511 C53.0876391,9.73139295 56.0113023,6.54310044 60.3557197,6.54310044 Z M10.6540666,6.87319639 L10.6540666,20.3815481 L7.3503936,20.3815481 L7.3503936,6.87319639 L10.6540666,6.87319639 Z M17.5183649,1 L17.5183649,20.3815481 L14.2146919,20.3815481 L14.2146919,1 L17.5183649,1 Z M43.782565,9.58954972 C41.3627018,9.58954972 39.7998037,11.4219962 39.7998037,13.6824335 C39.7998037,15.9428707 41.3994092,17.7753172 43.782565,17.7753172 C46.1657207,17.7753172 47.7653263,15.9428707 47.7653263,13.6824335 C47.7653263,11.4219962 46.2024282,9.58954972 43.782565,9.58954972 Z M60.4018754,9.51613477 C58.5191822,9.51613477 57.1536305,10.5863534 56.6370663,12.1838713 L56.6216731,12.2324485 L64.1850223,12.2324485 C63.7033317,10.6546801 62.4002752,9.51613477 60.4018754,9.51613477 Z M9.29909373,2.63027892 C10.0593305,2.63027892 10.6756241,3.24657257 10.6756241,4.00680932 C10.6756241,4.76704607 10.0593305,5.38333973 9.29909373,5.38333973 C8.53885698,5.38333973 7.92256333,4.76704607 7.92256333,4.00680932 C7.92256333,3.24657257 8.53885698,2.63027892 9.29909373,2.63027892 Z" id="Combined-Shape" fill="#FFFFFF"></path>
    </g>
</svg>