<?xml version="1.0" encoding="UTF-8"?>
<svg width="16px" height="10px" viewBox="0 0 16 10" version="1.1" xmlns="http://www.w3.org/2000/svg" xmlns:xlink="http://www.w3.org/1999/xlink">
    <title>sortable</title>
    <g id="sortable" stroke="none" stroke-width="1" fill="none" fill-rule="evenodd">
        <g id="Group-3-Copy" transform="translate(4.666667, 1.000000)" fill="#97A4B2" fill-rule="nonzero">
            <path d="M4.12955764,4.67177231 C4.3061866,4.47915706 4.60551818,4.46619761 4.79813344,4.64282657 C4.97593214,4.80586869 5.00065133,5.07346215 4.86447876,5.26516274 L4.82707919,5.31140237 L2.9503547,7.35710087 L4.82707919,9.40374578 C4.9901213,9.58154447 4.99162063,9.85027306 4.83938944,10.0294873 L4.79813344,10.0723216 C4.62033474,10.2353637 4.35160616,10.236863 4.1723919,10.0846318 L4.12955764,10.0433758 L1.66666667,7.35757407 L4.12955764,4.67177231 Z" id="Path-7-Copy" transform="translate(3.309093, 7.357574) rotate(-90.000000) translate(-3.309093, -7.357574) "></path>
            <path d="M4.12955764,-0.613079542 C4.3061866,-0.805694799 4.60551818,-0.818654251 4.79813344,-0.642025289 C4.97593214,-0.47898317 5.00065133,-0.211389707 4.86447876,-0.0196891122 L4.82707919,0.0265505113 L2.9503547,2.07224902 L4.82707919,4.11889392 C4.9901213,4.29669262 4.99162063,4.5654212 4.83938944,4.74463546 L4.79813344,4.78746972 C4.62033474,4.95051184 4.35160616,4.95201117 4.1723919,4.79977997 L4.12955764,4.75852397 L1.66666667,2.07272222 L4.12955764,-0.613079542 Z" id="Path-7-Copy-2" transform="translate(3.309093, 2.072722) scale(1, -1) rotate(-90.000000) translate(-3.309093, -2.072722) "></path>
        </g>
    </g>
</svg>