<?xml version="1.0" encoding="UTF-8"?>
<svg width="16px" height="10px" viewBox="0 0 16 10" version="1.1" xmlns="http://www.w3.org/2000/svg" xmlns:xlink="http://www.w3.org/1999/xlink">
    <title>sortable</title>
    <g id="sortable" stroke="none" stroke-width="1" fill="none" fill-rule="evenodd" opacity="0.5">
        <g id="Group-3-Copy" transform="translate(4.666667, 0.000000)" fill="#A3B1C0" fill-rule="nonzero">
            <path d="M4.12955764,5.15338508 C4.3061866,4.96076983 4.60551818,4.94781037 4.79813344,5.12443934 C4.97593214,5.28748146 5.00065133,5.55507492 4.86447876,5.74677551 L4.82707919,5.79301514 L2.9503547,7.83871364 L4.82707919,9.88535855 C4.9901213,10.0631572 4.99162063,10.3318858 4.83938944,10.5111001 L4.79813344,10.5539343 C4.62033474,10.7169765 4.35160616,10.7184758 4.1723919,10.5662446 L4.12955764,10.5249886 L1.66666667,7.83918684 L4.12955764,5.15338508 Z" id="Path-7-Copy" transform="translate(3.309093, 7.839187) rotate(-90.000000) translate(-3.309093, -7.839187) "></path>
            <path d="M4.12955764,-0.67994825 C4.3061866,-0.872563506 4.60551818,-0.885522959 4.79813344,-0.708893997 C4.97593214,-0.545851878 5.00065133,-0.278258415 4.86447876,-0.0865578199 L4.82707919,-0.0403181964 L2.9503547,2.00538031 L4.82707919,4.05202521 C4.9901213,4.22982391 4.99162063,4.4985525 4.83938944,4.67776675 L4.79813344,4.72060101 C4.62033474,4.88364313 4.35160616,4.88514246 4.1723919,4.73291126 L4.12955764,4.69165527 L1.66666667,2.00585351 L4.12955764,-0.67994825 Z" id="Path-7-Copy-2" transform="translate(3.309093, 2.005854) scale(1, -1) rotate(-90.000000) translate(-3.309093, -2.005854) "></path>
        </g>
    </g>
</svg>