<?xml version="1.0" encoding="UTF-8"?>
<svg width="30px" height="30px" viewBox="0 0 30 30" version="1.1" xmlns="http://www.w3.org/2000/svg" xmlns:xlink="http://www.w3.org/1999/xlink">
    <title>icon-chart-i</title>
    <g id="icon-chart-i" stroke="none" stroke-width="1" fill="none" fill-rule="evenodd">
        <path d="M22.03125,21.6262168 C22.4454636,21.6262168 22.78125,21.9620032 22.78125,22.3762168 C22.78125,22.7559126 22.4990961,23.0697078 22.1330206,23.1193702 L22.03125,23.1262168 L7.96875,23.1262168 C7.55453644,23.1262168 7.21875,22.7904304 7.21875,22.3762168 C7.21875,21.996521 7.50090388,21.6827258 7.86697944,21.6330634 L7.96875,21.6262168 L22.03125,21.6262168 Z M9.03125,12.8737832 C9.54408584,12.8737832 9.96675716,13.2598234 10.0245223,13.7571621 L10.03125,13.8737832 L10.03125,18.3762168 C10.03125,18.9285015 9.58353475,19.3762168 9.03125,19.3762168 C8.51841416,19.3762168 8.09574284,18.9901766 8.03797773,18.4928379 L8.03125,18.3762168 L8.03125,13.8737832 C8.03125,13.3214985 8.47896525,12.8737832 9.03125,12.8737832 Z M13.03125,10.8737832 C13.5440858,10.8737832 13.9667572,11.2598234 14.0245223,11.7571621 L14.03125,11.8737832 L14.03125,18.3762168 C14.03125,18.9285015 13.5835347,19.3762168 13.03125,19.3762168 C12.5184142,19.3762168 12.0957428,18.9901766 12.0379777,18.4928379 L12.03125,18.3762168 L12.03125,11.8737832 C12.03125,11.3214985 12.4789653,10.8737832 13.03125,10.8737832 Z M17.03125,8.8737832 C17.5440858,8.8737832 17.9667572,9.25982339 18.0245223,9.75716208 L18.03125,9.8737832 L18.03125,18.3762168 C18.03125,18.9285015 17.5835347,19.3762168 17.03125,19.3762168 C16.5184142,19.3762168 16.0957428,18.9901766 16.0379777,18.4928379 L16.03125,18.3762168 L16.03125,9.8737832 C16.03125,9.32149845 16.4789653,8.8737832 17.03125,8.8737832 Z M21.03125,6.8737832 C21.5440858,6.8737832 21.9667572,7.25982339 22.0245223,7.75716208 L22.03125,7.8737832 L22.03125,18.3762168 C22.03125,18.9285015 21.5835347,19.3762168 21.03125,19.3762168 C20.5184142,19.3762168 20.0957428,18.9901766 20.0379777,18.4928379 L20.03125,18.3762168 L20.03125,7.8737832 C20.03125,7.32149845 20.4789653,6.8737832 21.03125,6.8737832 Z" id="Combined-Shape-Copy-29" fill="#8095A8" fill-rule="nonzero"></path>
    </g>
</svg>