<?xml version="1.0" encoding="UTF-8"?>
<svg width="30px" height="30px" viewBox="0 0 30 30" version="1.1" xmlns="http://www.w3.org/2000/svg" xmlns:xlink="http://www.w3.org/1999/xlink">
    <title>icon-speed-i</title>
    <g id="icon-speed-i" stroke="none" stroke-width="1" fill="none" fill-rule="evenodd">
        <path d="M15,7.15692926 C20.7227189,7.15692926 25.3618993,11.7961096 25.3618993,17.5188285 C25.3618993,19.2623564 24.9301969,20.9451832 24.1176179,22.4459269 C23.9203957,22.8101745 23.4652345,22.9455753 23.100987,22.7483531 C22.7367394,22.5511309 22.6013386,22.0959698 22.7985607,21.7317222 C23.4931125,20.4489618 23.8618993,19.0113875 23.8618993,17.5188285 C23.8618993,12.6245367 19.8942918,8.65692926 15,8.65692926 C10.1057082,8.65692926 6.13810073,12.6245367 6.13810073,17.5188285 C6.13810073,19.0128681 6.50762113,20.4518067 7.20348807,21.735504 C7.40088745,22.0996555 7.2657081,22.5548825 6.90155654,22.7522819 C6.53740497,22.9496813 6.08217799,22.8145019 5.88477861,22.4503503 C5.07066231,20.9485132 4.63810073,19.2640878 4.63810073,17.5188285 C4.63810073,11.7961096 9.27728106,7.15692926 15,7.15692926 Z M20.1204514,12.4343529 C20.3588594,12.6727609 20.3827002,13.0444838 20.1919738,13.3095547 L20.1851007,13.3169293 L20.0483297,13.5398611 C18.2066596,16.5184344 17.1571785,18.2157832 16.8998864,18.6319074 C16.8926876,18.6473594 16.8833444,18.6628577 16.8737934,18.6782637 L16.8483238,18.7153007 C16.8409164,18.7272809 16.8372127,18.733271 16.8372127,18.733271 C16.7573942,18.8556116 16.6641542,18.9701858 16.5577557,19.0765843 C15.697431,19.936909 14.302569,19.936909 13.4422443,19.0765843 C12.5819195,18.2162595 12.5819195,16.8213975 13.4422443,15.9610728 C13.6066656,15.7966515 13.7906109,15.6636537 13.9866175,15.5620793 L19.2234125,12.3792211 C19.4895665,12.1709453 19.8754211,12.1893226 20.1204514,12.4343529 Z M21.6408117,16.5188285 C22.1930965,16.5188285 22.6408117,16.9665438 22.6408117,17.5188285 C22.6408117,18.0711133 22.1930965,18.5188285 21.6408117,18.5188285 C21.088527,18.5188285 20.6408117,18.0711133 20.6408117,17.5188285 C20.6408117,16.9665438 21.088527,16.5188285 21.6408117,16.5188285 Z M8.4850986,16.5188285 C9.03738335,16.5188285 9.4850986,16.9665438 9.4850986,17.5188285 C9.4850986,18.0711133 9.03738335,18.5188285 8.4850986,18.5188285 C7.93281385,18.5188285 7.4850986,18.0711133 7.4850986,17.5188285 C7.4850986,16.9665438 7.93281385,16.5188285 8.4850986,16.5188285 Z M10.2771524,11.9139927 C10.8294372,11.9139927 11.2771524,12.3617079 11.2771524,12.9139927 C11.2771524,13.4662774 10.8294372,13.9139927 10.2771524,13.9139927 C9.72486765,13.9139927 9.2771524,13.4662774 9.2771524,12.9139927 C9.2771524,12.3617079 9.72486765,11.9139927 10.2771524,11.9139927 Z M15,9.91399268 C15.5522847,9.91399268 16,10.3617079 16,10.9139927 C16,11.4662774 15.5522847,11.9139927 15,11.9139927 C14.4477153,11.9139927 14,11.4662774 14,10.9139927 C14,10.3617079 14.4477153,9.91399268 15,9.91399268 Z" id="Combined-Shape-Copy-26" fill="#8095A8" fill-rule="nonzero"></path>
    </g>
</svg>