<?xml version="1.0" encoding="UTF-8"?>
<svg width="30px" height="30px" viewBox="0 0 30 30" version="1.1" xmlns="http://www.w3.org/2000/svg" xmlns:xlink="http://www.w3.org/1999/xlink">
    <title>icon-synch-n</title>
    <g id="icon-synch-n" stroke="none" stroke-width="1" fill="none" fill-rule="evenodd">
        <path d="M8.10295108,9.07259124 L9.23543991,10.0561913 C8.12260537,11.337477 7.5,12.9718093 7.5,14.7045512 C7.5,18.5417031 10.547144,21.6671563 14.3536488,21.7931277 L14.5925234,21.7970746 L14.5925234,19.2681703 L18.0144764,22.7681703 L14.5925234,26.2681703 L14.5925234,23.2970746 C9.84700377,23.2970746 6,19.4500709 6,14.7045512 C6,12.717307 6.67789444,10.8332496 7.89511159,9.32112254 L8.10295108,9.07259124 Z M14.910672,3 L14.910672,5.97109568 C19.6561916,5.97109568 23.5031954,9.81809945 23.5031954,14.5636191 C23.5031954,16.5508633 22.8253009,18.4349207 21.6080838,19.9470478 L21.4002443,20.1955791 L20.2677555,19.211979 C21.38059,17.9306933 22.0031954,16.296361 22.0031954,14.5636191 C22.0031954,10.7264672 18.9560514,7.601014 15.1495466,7.47504263 L14.910672,7.47109568 L14.910672,10 L11.488719,6.5 L14.910672,3 Z" id="Combined-Shape" fill="#FFFFFF" fill-rule="nonzero"></path>
    </g>
</svg>