<?xml version="1.0" encoding="UTF-8"?>
<svg width="30px" height="30px" viewBox="0 0 30 30" version="1.1" xmlns="http://www.w3.org/2000/svg" xmlns:xlink="http://www.w3.org/1999/xlink">
    <title>icon-cube-n</title>
    <g id="icon-cube-n" stroke="none" stroke-width="1" fill="none" fill-rule="evenodd">
        <path d="M13.6200186,4.36843014 C14.4708716,3.87718995 15.5191656,3.87718995 16.3700186,4.36843014 L16.3700186,4.36843014 L23.6150372,8.55134358 C24.4658902,9.04258376 24.9900372,9.95043306 24.9900372,10.9329134 L24.9900372,10.9329134 L24.9900372,19.2987403 C24.9900372,20.2812207 24.4658902,21.18907 23.6150372,21.6803102 L23.6150372,21.6803102 L16.3700186,25.8632236 C15.5191656,26.3544638 14.4708716,26.3544638 13.6200186,25.8632236 L13.6200186,25.8632236 L6.375,21.6803102 C5.52414704,21.18907 5,20.2812207 5,19.2987403 L5,19.2987403 L5,10.9329134 C5,9.95043306 5.52414704,9.04258376 6.375,8.55134358 L6.375,8.55134358 Z M15.6200186,5.66746825 C15.2332672,5.44417725 14.7567699,5.44417725 14.3700186,5.66746825 L14.3700186,5.66746825 L7.125,9.85038168 C6.73824865,10.0736727 6.5,10.4863314 6.5,10.9329134 L6.5,10.9329134 L6.5,19.2987403 C6.5,19.7453223 6.73824865,20.1579811 7.125,20.3812721 L7.125,20.3812721 L14.3700186,24.5641855 C14.7567699,24.7874765 15.2332672,24.7874765 15.6200186,24.5641855 L15.6200186,24.5641855 L22.8650372,20.3812721 C23.2517885,20.1579811 23.4900372,19.7453223 23.4900372,19.2987403 L23.4900372,19.2987403 L23.4900372,10.9329134 C23.4900372,10.4863314 23.2517885,10.0736727 22.8650372,9.85038168 L22.8650372,9.85038168 Z M22.0080416,11.0763733 C22.1978895,11.4051995 22.1104346,11.8180311 21.8182351,12.0440778 L21.7335225,12.1008924 L16.3700186,15.1975128 C16.0262396,15.3959937 15.7997961,15.7440985 15.7537195,16.1326536 L15.7450186,16.2800446 L15.7450186,22.4732854 C15.7450186,22.887499 15.4092322,23.2232854 14.9950186,23.2232854 C14.6153228,23.2232854 14.3015276,22.9411316 14.2518652,22.575056 L14.2450186,22.4732854 L14.2450186,16.2800446 C14.2450186,15.3630629 14.7016089,14.5110932 15.4542626,14.0021762 L15.6200186,13.8984747 L20.9835225,10.8018543 C21.342242,10.5947475 21.8009348,10.7176539 22.0080416,11.0763733 Z M8.72490374,10.6375692 L8.81647024,10.6825102 L13.1964317,13.2103331 C13.5551848,13.4173816 13.6781657,13.8760545 13.4711172,14.2348076 C13.2813228,14.5636646 12.880094,14.6944075 12.5382093,14.5544342 L12.4466428,14.5094931 L8.06668136,11.9816702 C7.70792824,11.7746217 7.58494733,11.3159489 7.79199582,10.9571958 C7.98179026,10.6283387 8.38301904,10.4975959 8.72490374,10.6375692 Z" id="Combined-Shape" fill="#FFFFFF" fill-rule="nonzero"></path>
    </g>
</svg>