<?xml version="1.0" encoding="UTF-8"?>
<svg width="30px" height="30px" viewBox="0 0 30 30" version="1.1" xmlns="http://www.w3.org/2000/svg" xmlns:xlink="http://www.w3.org/1999/xlink">
    <title>icon-new-s</title>
    <g id="icon-new-s" stroke="none" stroke-width="1" fill="none" fill-rule="evenodd">
        <path d="M20.4989749,18.7551645 C20.8786706,18.7551645 21.1924658,19.0373184 21.2421283,19.4033939 L21.2489749,19.5051645 L21.2480251,21.7548355 L23.4989749,21.7551645 C23.9131884,21.7551645 24.2489749,22.0909509 24.2489749,22.5051645 C24.2489749,22.8848602 23.966821,23.1986554 23.6007454,23.2483179 L23.4989749,23.2551645 L21.2480251,23.2548355 L21.2489749,25.5051645 C21.2489749,25.919378 20.9131884,26.2551645 20.4989749,26.2551645 C20.1192791,26.2551645 19.8054839,25.9730106 19.7558215,25.606935 L19.7489749,25.5051645 L19.7480251,23.2548355 L17.4989749,23.2551645 C17.0847613,23.2551645 16.7489749,22.919378 16.7489749,22.5051645 C16.7489749,22.1254687 17.0311287,21.8116735 17.3972043,21.7620111 L17.4989749,21.7551645 L19.7480251,21.7548355 L19.7489749,19.5051645 C19.7489749,19.0909509 20.0847613,18.7551645 20.4989749,18.7551645 Z M14.672598,3.74483552 C14.731535,3.74483552 14.7902769,3.74672745 14.8487426,3.75047768 L14.8501469,3.75139721 L14.9800924,3.74483552 C15.4533902,3.74483552 15.9094568,3.91196158 16.269394,4.21353296 L16.3997103,4.33286052 L16.6020251,4.53583552 L16.6171417,4.55029188 L20.4455688,8.378719 C20.4504189,8.38356908 20.455249,8.38843541 20.460059,8.39331786 L20.6630001,8.59615036 C21.0395062,8.97265644 21.2510251,9.48330827 21.2510251,10.0157683 C21.2510251,10.0596381 21.2488024,10.1029887 21.2444635,10.1457138 L21.2510251,10.3232626 L21.2510251,16.5048355 L19.7510251,16.5048355 L19.7510251,11.2858355 L16.4591596,11.286701 C14.9966278,11.286701 13.8007554,10.1449964 13.7141784,8.70422335 L13.7091596,8.53670102 L13.7090251,5.24483552 L8.50102513,5.24483552 C7.85381644,5.24483552 7.32149123,5.73671019 7.25747874,6.36703029 L7.25102513,6.49483552 L7.25102513,20.4948355 C7.25102513,21.1420442 7.7428998,21.6743694 8.37321989,21.7383819 L8.50102513,21.7448355 L14.4980251,21.7448355 L14.4980251,23.2448355 L8.50102513,23.2448355 C7.0384933,23.2448355 5.84262085,22.1031309 5.75604393,20.6623579 L5.75102513,20.4948355 L5.75102513,6.49483552 C5.75102513,5.03230369 6.89272973,3.83643125 8.3335028,3.74985432 L8.50102513,3.74483552 L14.672598,3.74483552 Z M15.2106682,5.36657048 L15.2091596,8.53670102 C15.2091596,9.14076246 15.6376371,9.64474763 16.207241,9.76130546 L16.3313544,9.78024741 L16.4591596,9.78670102 L19.629755,9.78616818 C19.5893037,9.70115389 19.5391952,9.62059195 19.4801319,9.54617775 L19.3849086,9.43937917 L15.5564815,5.61095205 C15.4549772,5.50944772 15.3378133,5.4272032 15.2106682,5.36657048 Z" id="Combined-Shape" fill="#5ED995" fill-rule="nonzero"></path>
    </g>
</svg>