<?xml version="1.0" encoding="UTF-8"?>
<svg width="30px" height="30px" viewBox="0 0 30 30" version="1.1" xmlns="http://www.w3.org/2000/svg" xmlns:xlink="http://www.w3.org/1999/xlink">
    <title>icon-tool-s</title>
    <g id="icon-tool-s" stroke="none" stroke-width="1" fill="none" fill-rule="evenodd">
        <path d="M18.2906509,5.42907513 C18.5738858,5.42907513 18.8514638,5.50837194 19.0919542,5.6579932 C21.3520067,7.0640866 22.7558734,9.53569909 22.7558734,12.2477039 C22.7558734,14.8462064 21.4667361,17.2211402 19.3788173,18.6502175 L19.2738865,18.718132 L19.2738865,23.8209507 C19.2738735,24.2006464 18.9917088,24.5144319 18.6256315,24.5640818 L18.5238607,24.5709249 C18.144165,24.5709249 17.8303795,24.2887471 17.7807296,23.9226699 L17.7738865,23.8208991 L17.774091,17.8731799 L18.1462665,17.6561495 C20.056714,16.5420916 21.2558734,14.4996198 21.2558734,12.2477039 C21.2558734,10.1469496 20.2127559,8.22643298 18.5151486,7.07190326 L18.299567,6.93161893 C18.2968962,6.92995729 18.2938081,6.92907513 18.2906509,6.92907513 L18.2787589,6.93400449 L18.2738353,6.94593115 L18.2733805,10.2752495 L18.2663679,10.4521492 C18.164996,11.826176 17.0601989,12.9080545 15.6957422,12.9924064 L15.5238865,12.9977039 L14.4485678,12.9971979 L14.2716681,12.9901853 C12.8976414,12.8888133 11.8157628,11.7840162 11.731411,10.4196905 L11.7261135,10.2478519 L11.7254668,6.97087589 C11.7254639,6.96506024 11.7238335,6.95940036 11.7207853,6.95454469 C11.7118914,6.94037701 11.6931963,6.93610175 11.6790287,6.94499563 C9.86665907,8.08272563 8.74412659,10.0683781 8.74412659,12.2477039 C8.74412659,14.4129862 9.85279478,16.3846303 11.636431,17.5234928 L11.8536794,17.656118 L12.2258437,17.8731468 L12.2261135,23.8208909 C12.2261323,24.2351044 11.8903611,24.5709249 11.4761475,24.5709249 C11.0964517,24.5709249 10.7826437,24.2888024 10.7329647,23.9227291 L10.7261135,23.8209589 L10.7248865,18.718132 L10.6211233,18.6501768 C8.61056728,17.2740232 7.34071205,15.0208027 7.24940667,12.5354668 L7.24412659,12.2477039 C7.24412659,9.54681981 8.63645112,7.08393109 10.881512,5.67457558 C11.5973133,5.22522539 12.5418552,5.44122669 12.9912054,6.15702799 C13.1135573,6.35193089 13.1899797,6.57126481 13.2157296,6.7986008 L13.2254667,6.97034648 L13.2261135,10.2477039 C13.2261135,10.8594965 13.6675324,11.373435 14.2317334,11.4769405 L14.3543968,11.4927242 L14.4761135,11.4977039 L15.5238865,11.4977039 C16.1356791,11.4977039 16.6496177,11.056285 16.7531231,10.492084 L16.7689068,10.3694206 L16.7738865,10.2477155 L16.7738353,6.94600456 C16.7737663,6.10824289 17.4528917,5.42907513 18.2906509,5.42907513 Z" id="Path-Copy-7" fill="#5ED995" fill-rule="nonzero"></path>
    </g>
</svg>