<?xml version="1.0" encoding="UTF-8"?>
<svg width="30px" height="30px" viewBox="0 0 30 30" version="1.1" xmlns="http://www.w3.org/2000/svg" xmlns:xlink="http://www.w3.org/1999/xlink">
    <title>icon-up-n</title>
    <g id="icon-up-n" stroke="none" stroke-width="1" fill="none" fill-rule="evenodd">
        <path d="M15.0118539,7.47024362 C18.4646392,7.47024362 21.2636748,10.2692792 21.2636748,13.7220645 L21.2636748,13.7220645 L21.2620322,13.7552436 L21.4478183,13.7779473 C23.5092102,14.0742057 25.108839,15.7999154 25.2098958,17.9182676 L25.2098958,17.9182676 L25.2149678,18.1313733 C25.2149678,20.4736488 23.3795149,22.4017535 21.0299147,22.5244439 L21.0299147,22.5244439 L20.8165847,22.5297564 L9.89827967,22.5297564 C7.07431107,22.5297564 4.78503219,20.2404775 4.78503219,17.4165089 C4.78503219,14.9741773 6.5036031,12.9129056 8.82177963,12.4167647 L8.82177963,12.4167647 L8.90003219,12.4012436 L8.92467465,12.2882286 C9.55892432,9.5821585 11.9404064,7.58088183 14.7746469,7.47468139 L14.7746469,7.47468139 Z M15.0118539,8.97024362 C12.5981024,8.97024362 10.5746809,10.7800225 10.2928124,13.1554879 C10.2506854,13.5105165 9.96381655,13.7864525 9.60741975,13.8147597 C7.73812714,13.9632302 6.28503219,15.5290828 6.28503219,17.4165089 C6.28503219,19.4120504 7.90273819,21.0297564 9.89827967,21.0297564 L9.89827967,21.0297564 L20.7970165,21.0300117 L20.9711548,21.0257239 C22.5052591,20.9454486 23.7149678,19.6746751 23.7149678,18.1313733 C23.7149678,16.5306405 22.4173175,15.2329902 20.8381653,15.2326796 L20.8381653,15.2326796 L20.6720969,15.235948 L20.5278572,15.2492956 C20.0455898,15.2939234 19.6481077,14.8765633 19.7161981,14.3970457 C19.7477317,14.1749743 19.7636748,13.9496364 19.7636748,13.7220645 C19.7636748,11.0977063 17.6362121,8.97024362 15.0118539,8.97024362 Z M15.0357404,12.6889522 C15.3291417,12.6889522 15.5831932,12.8574284 15.7064305,13.1029162 L17.910525,15.0941201 C18.2180557,15.3716048 18.2424128,15.8458534 17.9649282,16.1533841 C17.7126694,16.4329575 17.2977957,16.4785031 16.9933966,16.2759953 L16.9056641,16.2077873 L15.7850322,15.1962436 L15.7857404,18.2928599 C15.7857404,18.7070734 15.449954,19.0428599 15.0357404,19.0428599 C14.6560447,19.0428599 14.3422495,18.760706 14.292587,18.3946304 L14.2857404,18.2928599 L14.2850322,15.1692436 L13.1019752,16.2136956 C12.8194354,16.4626274 12.4020746,16.4604897 12.1227972,16.2245398 L12.0434293,16.1467577 C11.7944975,15.8642179 11.7966352,15.4468571 12.0325851,15.1675797 L12.1103672,15.0882118 L14.3686266,13.0958851 C14.4931568,12.8542172 14.7451487,12.6889522 15.0357404,12.6889522 Z" id="Combined-Shape-Copy-31" fill="#FFFFFF" fill-rule="nonzero"></path>
    </g>
</svg>