<?xml version="1.0" encoding="UTF-8"?>
<svg width="30px" height="30px" viewBox="0 0 30 30" version="1.1" xmlns="http://www.w3.org/2000/svg" xmlns:xlink="http://www.w3.org/1999/xlink">
    <title>icon-gear-n</title>
    <g id="icon-gear-n" stroke="none" stroke-width="1" fill="none" fill-rule="evenodd">
        <path d="M16.1876695,5.375 C17.0308715,5.375 17.7480784,5.9719359 17.9113794,6.7861633 L17.9333941,6.92381473 L18.1331744,8.58906593 L18.3770447,8.71190104 L18.6344003,8.85410644 L18.8859199,9.00620875 L19.1116359,9.15434066 L20.6562491,8.49533048 C21.3835706,8.18449164 22.2153971,8.40021494 22.7037461,8.99321864 L22.7911771,9.10879164 L22.8699015,9.23298848 L24.1885829,11.5170115 C24.6088796,12.2449867 24.4528002,13.1611461 23.8341063,13.7102694 L23.720146,13.8032505 L22.3740535,14.8106044 L22.3896995,15.0193976 L22.3979841,15.375 L22.3959132,15.5529394 L22.3897106,15.7303643 L22.3749326,15.9376374 L23.7205723,16.947069 C24.3534375,17.4215256 24.5825356,18.2497764 24.3131527,18.9692066 L24.2567787,19.1027116 L24.1885829,19.2329885 L22.8699015,21.5170115 C22.4497041,22.2448147 21.5785366,22.5677694 20.7937372,22.3068176 L20.6562491,22.2546695 L19.1116359,21.5947802 L18.8859199,21.7437913 L18.6344003,21.8958936 L18.3770447,22.038099 L18.1331744,22.1600549 L17.9333941,23.8261853 C17.8385387,24.6168734 17.228408,25.2325558 16.4634834,25.353412 L16.3269632,25.3695379 L16.1876695,25.375 L13.5503068,25.375 C12.7073014,25.375 11.9902001,24.7783346 11.8266982,23.9643388 L11.8046471,23.8267256 L11.6039436,22.1600549 L11.3603141,22.0377733 L11.1030579,21.8955938 L10.8516344,21.7435246 L10.6254821,21.5939011 L9.08172724,22.2546695 C8.35440571,22.5655084 7.52257919,22.3497851 7.03423018,21.7567814 L6.94679924,21.6412084 L6.86807478,21.5170115 L5.54939346,19.2329885 C5.12909677,18.5050133 5.28517608,17.5888539 5.90387001,17.0397306 L6.01783037,16.9467495 L7.3630645,15.9385165 L7.34827684,15.7306024 L7.3399922,15.375 L7.34206595,15.1969411 L7.34827684,15.0193976 L7.3630645,14.8106044 L6.01783037,13.8032505 C5.38467691,13.3288774 5.15538585,12.5004482 5.42480078,11.7808537 L5.48118345,11.6473182 L5.54939346,11.5170115 L6.86807478,9.23298848 C7.28827217,8.50518525 8.15943977,8.18223059 8.94423916,8.4431824 L9.08172724,8.49533048 L10.6254821,9.15521978 L10.8516344,9.00647541 L11.1030579,8.85440618 L11.3603141,8.71222671 L11.6039436,8.58906593 L11.8046471,6.92327442 C11.8997251,6.13280009 12.5097942,5.51738146 13.2745548,5.39657837 L13.4110451,5.38045964 L13.5503068,5.375 L16.1876695,5.375 Z M16.1876695,7.13324176 L13.5503068,7.13324176 L13.2245055,9.84194072 C12.4317286,10.0772059 11.7102286,10.4782108 11.1001645,11.0047961 L10.9009922,11.1849205 L8.39075681,10.1121094 L7.07207549,12.3961324 L9.25535532,14.0318957 C9.15262386,14.4628615 9.09823396,14.912579 9.09823396,15.375 C9.09823396,15.7449368 9.13304349,16.1067434 9.19956582,16.457323 L9.25535532,16.7181043 L7.07207549,18.3538676 L8.39075681,20.6378906 L10.9009922,19.5650795 C11.4857969,20.1190757 12.1864997,20.5519537 12.9629415,20.8235541 L13.2245055,20.9080593 L13.5503068,23.6167582 L16.1876695,23.6167582 L16.512589,20.9083209 C17.3056833,20.6731001 18.0274681,20.2720142 18.6377439,19.7452625 L18.8369841,19.5650795 L21.3472195,20.6378906 L22.6659008,18.3538676 L20.4828299,16.7172277 C20.5854262,16.2865288 20.6397424,15.8371075 20.6397424,15.375 C20.6397424,15.0050632 20.6049328,14.6432566 20.5384105,14.292677 L20.482621,14.0318957 L22.6659008,12.3961324 L21.3472195,10.1121094 L18.8369841,11.1849205 C18.2519843,10.6307394 17.5510089,10.1977575 16.7742575,9.92617403 L16.512589,9.84167909 L16.1876695,7.13324176 Z M14.8689882,12.4755842 C16.4702913,12.4755842 17.7684039,13.7736969 17.7684039,15.375 C17.7684039,16.9763031 16.4702913,18.2744158 14.8689882,18.2744158 C13.2676851,18.2744158 11.9695724,16.9763031 11.9695724,15.375 C11.9695724,13.7736969 13.2676851,12.4755842 14.8689882,12.4755842 Z" id="Combined-Shape" fill="#FFFFFF" fill-rule="nonzero"></path>
    </g>
</svg>