<?xml version="1.0" encoding="UTF-8"?>
<svg width="30px" height="30px" viewBox="0 0 30 30" version="1.1" xmlns="http://www.w3.org/2000/svg" xmlns:xlink="http://www.w3.org/1999/xlink">
    <title>icon-list-s</title>
    <g id="icon-list-s" stroke="none" stroke-width="1" fill="none" fill-rule="evenodd">
        <path d="M5.80522631,20.1507566 C6.59202315,20.1507566 7.22984801,20.7885815 7.22984801,21.5753783 C7.22984801,22.3621751 6.59202315,23 5.80522631,23 C5.01842947,23 4.38060462,22.3621751 4.38060462,21.5753783 C4.38060462,20.7885815 5.01842947,20.1507566 5.80522631,20.1507566 Z M24.6193954,20.5753783 C25.1716801,20.5753783 25.6193954,21.0230936 25.6193954,21.5753783 C25.6193954,22.0882141 25.2333552,22.5108855 24.7360165,22.5686506 L24.6193954,22.5753783 L10.977082,22.5753783 C10.4247973,22.5753783 9.97708205,22.1276631 9.97708205,21.5753783 C9.97708205,21.0625425 10.3631222,20.6398711 10.8604609,20.582106 L10.977082,20.5753783 L24.6193954,20.5753783 Z M5.80522631,13.5753783 C6.59202315,13.5753783 7.22984801,14.2132032 7.22984801,15 C7.22984801,15.7867968 6.59202315,16.4246217 5.80522631,16.4246217 C5.01842947,16.4246217 4.38060462,15.7867968 4.38060462,15 C4.38060462,14.2132032 5.01842947,13.5753783 5.80522631,13.5753783 Z M24.6193954,14 C25.1716801,14 25.6193954,14.4477153 25.6193954,15 C25.6193954,15.5128358 25.2333552,15.9355072 24.7360165,15.9932723 L24.6193954,16 L10.977082,16 C10.4247973,16 9.97708205,15.5522847 9.97708205,15 C9.97708205,14.4871642 10.3631222,14.0644928 10.8604609,14.0067277 L10.977082,14 L24.6193954,14 Z M5.80522631,7 C6.59202315,7 7.22984801,7.63782486 7.22984801,8.4246217 C7.22984801,9.21141853 6.59202315,9.84924339 5.80522631,9.84924339 C5.01842947,9.84924339 4.38060462,9.21141853 4.38060462,8.4246217 C4.38060462,7.63782486 5.01842947,7 5.80522631,7 Z M24.6193954,7.4246217 C25.1716801,7.4246217 25.6193954,7.87233695 25.6193954,8.4246217 C25.6193954,8.93745753 25.2333552,9.36012886 24.7360165,9.41789396 L24.6193954,9.4246217 L10.977082,9.4246217 C10.4247973,9.4246217 9.97708205,8.97690645 9.97708205,8.4246217 C9.97708205,7.91178586 10.3631222,7.48911453 10.8604609,7.43134943 L10.977082,7.4246217 L24.6193954,7.4246217 Z" id="Combined-Shape-Copy-27" fill="#5ED995" fill-rule="nonzero"></path>
    </g>
</svg>