<?xml version="1.0" encoding="UTF-8"?>
<svg width="30px" height="30px" viewBox="0 0 30 30" version="1.1" xmlns="http://www.w3.org/2000/svg" xmlns:xlink="http://www.w3.org/1999/xlink">
    <title>icon-darkalt-i</title>
    <g id="icon-darkalt-i" stroke="none" stroke-width="1" fill="none" fill-rule="evenodd">
        <path d="M22.0412663,10.7304567 C22.399159,10.372564 23.001516,10.4646439 23.2361434,10.9131128 C25.0087014,14.3011952 24.400627,18.4900338 21.6550142,21.2356466 C18.9094014,23.9812593 14.7205629,24.5893337 11.3324805,22.8167757 C10.8840116,22.5821483 10.7919317,21.9797913 11.1498244,21.6218986 L11.1498244,21.6218986 Z M23.6030888,6.81627887 C23.8715743,7.08476432 23.893948,7.50616395 23.6702102,7.8001351 L23.6030888,7.87693904 L8.29630672,23.1837211 C8.00341351,23.4766143 7.52853977,23.4766143 7.23564655,23.1837211 C6.9671611,22.9152357 6.94478731,22.493836 7.16852519,22.1998649 L7.23564655,22.123061 L22.5424286,6.81627887 C22.8353219,6.52338565 23.3101956,6.52338565 23.6030888,6.81627887 Z M19.5062549,7.18322426 C19.8732741,7.37523931 20.015143,7.82842612 19.8231279,8.19544532 C19.6311129,8.56246453 19.1779261,8.70433342 18.8109069,8.51231837 C15.9998942,7.04166852 12.523002,7.5463929 10.2443813,9.82501362 C7.96576058,12.1036343 7.4610362,15.5805265 8.93168606,18.3915392 C9.12370111,18.7585584 8.98183221,19.2117452 8.614813,19.4037603 C8.2477938,19.5957753 7.794607,19.4539064 7.60259195,19.0868872 C5.83003399,15.6988048 6.43810834,11.5099662 9.18372113,8.76435345 C11.9293339,6.01874066 16.1181725,5.41066631 19.5062549,7.18322426 Z" id="Combined-Shape-Copy-2" fill="#8095A8" fill-rule="nonzero"></path>
    </g>
</svg>