<?xml version="1.0" encoding="UTF-8"?>
<svg width="30px" height="30px" viewBox="0 0 30 30" version="1.1" xmlns="http://www.w3.org/2000/svg" xmlns:xlink="http://www.w3.org/1999/xlink">
    <title>icon-ws-n</title>
    <g id="icon-ws-n" stroke="none" stroke-width="1" fill="none" fill-rule="evenodd">
        <path d="M25.45,22 C25.8642136,22 26.2,22.3357864 26.2,22.75 C26.2,23.1296958 25.9178461,23.443491 25.5517706,23.4931534 L25.45,23.5 L4.55,23.5 C4.13578644,23.5 3.8,23.1642136 3.8,22.75 C3.8,22.3703042 4.08215388,22.056509 4.44822944,22.0068466 L4.55,22 L25.45,22 Z M22.3888889,6.5 C23.9386398,6.5 25.25,7.56486394 25.25,8.96428571 L25.25,8.96428571 L25.25,17.5357143 C25.25,18.9351361 23.9386398,20 22.3888889,20 L22.3888889,20 L7.61111111,20 C6.06136023,20 4.75,18.9351361 4.75,17.5357143 L4.75,17.5357143 L4.75,8.96428571 C4.75,7.56486394 6.06136023,6.5 7.61111111,6.5 L7.61111111,6.5 Z M22.3888889,8 L7.61111111,8 C6.82899305,8 6.25,8.47015977 6.25,8.96428571 L6.25,8.96428571 L6.25,17.5357143 C6.25,18.0298402 6.82899305,18.5 7.61111111,18.5 L7.61111111,18.5 L22.3888889,18.5 C23.1710069,18.5 23.75,18.0298402 23.75,17.5357143 L23.75,17.5357143 L23.75,8.96428571 C23.75,8.47015977 23.1710069,8 22.3888889,8 L22.3888889,8 Z" id="Combined-Shape-Copy-28" fill="#FFFFFF" fill-rule="nonzero"></path>
    </g>
</svg>