<?xml version="1.0" encoding="UTF-8"?>
<svg width="30px" height="30px" viewBox="0 0 30 30" version="1.1" xmlns="http://www.w3.org/2000/svg" xmlns:xlink="http://www.w3.org/1999/xlink">
    <title>icon-dark-s</title>
    <g id="icon-dark-s" stroke="none" stroke-width="1" fill="none" fill-rule="evenodd">
        <path d="M15.5085084,4.23068172 L16.1912617,4.27952909 L16.6506384,4.32295243 C16.6796124,4.32634443 16.7062597,4.32967979 16.7305801,4.3329585 C22.1570793,5.06452114 26.2992132,9.60519536 26.2992132,15.1379525 C26.2992132,20.6707097 22.4579468,25.2451222 15.792378,26.055409 L15.4708135,26.0780937 C15.2983637,26.0872101 15.129589,26.0260011 15.0030737,25.90846 C14.7708417,25.6927011 14.7355998,25.3442736 14.9056385,25.0886378 L14.9699324,25.0071718 L15.2506973,24.6991061 C17.9188567,21.7142591 19.2529363,18.5272079 19.2529363,15.1379525 C19.2529363,11.6438018 17.835001,8.36456529 14.9991304,5.30024284 C14.8803201,5.17186136 14.8194578,5.00031408 14.8307911,4.82575961 C14.8536114,4.47428692 15.1570358,4.20786148 15.5085084,4.23068172 Z M12.05283,23.8273491 C12.4084808,23.9535539 12.5944836,24.344175 12.4682788,24.6998258 L12.1635935,25.5584429 C12.0373887,25.9140937 11.6467676,26.1000965 11.2911167,25.9738917 C10.9354659,25.847687 10.7494631,25.4570658 10.8756679,25.101415 L11.1803532,24.2427979 C11.306558,23.8871471 11.6971791,23.7011443 12.05283,23.8273491 Z M9.30681939,22.0859437 C9.59766964,22.3264043 9.63851853,22.7571168 9.39805794,23.0479671 L8.81753473,23.7501417 C8.57707415,24.040992 8.14636161,24.0818408 7.85551136,23.8413803 C7.56466111,23.6009197 7.52381222,23.1702071 7.76427281,22.8793569 L8.34479601,22.1771823 C8.5852566,21.886332 9.01596914,21.8454831 9.30681939,22.0859437 Z M15.0292659,7.81516264 C15.0929057,8.18713728 14.842951,8.54027259 14.4709763,8.60391245 C11.248945,9.15515862 8.88018105,11.9891595 8.93783227,15.2919959 C8.9932407,18.4663426 11.2765681,21.1438398 14.3563896,21.7269964 C14.7271805,21.7972047 14.9708509,22.1547053 14.9006425,22.5254963 C14.8362849,22.865388 14.5305219,23.0984631 14.1944049,23.0808703 L14.1021426,23.0697493 C10.3889724,22.3666697 7.63819778,19.14103 7.57142896,15.3158466 C7.50195636,11.3357639 10.3557176,7.92150982 14.2405161,7.25687312 C14.6124907,7.19323327 14.965626,7.443188 15.0292659,7.81516264 Z M7.28775596,19.4522424 C7.4768031,19.7788559 7.36528356,20.1968814 7.03867012,20.3859285 L6.2501555,20.8423287 C5.92354206,21.0313758 5.50551656,20.9198563 5.31646943,20.5932428 C5.1274223,20.2666294 5.23894183,19.8486039 5.56555528,19.6595567 L6.35406989,19.2031566 C6.68068334,19.0141095 7.09870883,19.125629 7.28775596,19.4522424 Z M6.33618986,16.4124432 C6.40376382,16.7837234 6.15756133,17.1394849 5.78628122,17.2070588 L4.88993173,17.3701968 C4.51865162,17.4377707 4.16289011,17.1915682 4.09531615,16.8202881 C4.0277422,16.449008 4.27394469,16.0932465 4.6452248,16.0256725 L5.54157429,15.8625346 C5.9128544,15.7949606 6.26861591,16.0411631 6.33618986,16.4124432 Z M5.01761444,12.2078138 L5.9157894,12.3605821 C6.28782566,12.4238607 6.53812313,12.7767532 6.47484447,13.1487894 C6.4115658,13.5208257 6.05867334,13.7711232 5.68663709,13.7078445 L4.78846212,13.5550763 C4.41642587,13.4917976 4.1661284,13.1389052 4.22940706,12.7668689 C4.29268573,12.3948327 4.64557819,12.1445352 5.01761444,12.2078138 Z M6.70625357,8.72156383 L7.49479483,9.17791794 C7.82141931,9.366946 7.93296325,9.78496499 7.74393519,10.1115895 C7.55490712,10.438214 7.13688814,10.5497579 6.81026366,10.3607298 L6.0217224,9.90437572 C5.69509792,9.71534766 5.58355398,9.29732867 5.77258204,8.97070419 C5.9616101,8.64407971 6.37962908,8.53253577 6.70625357,8.72156383 Z M9.44481518,6.07053348 L10.0311566,6.76785699 C10.2740272,7.05669784 10.236761,7.48773513 9.94792012,7.73060572 C9.65907926,7.97347631 9.22804197,7.93621004 8.98517139,7.64736919 L8.39882992,6.95004568 C8.15595933,6.66120482 8.1932256,6.23016753 8.48206645,5.98729695 C8.77090731,5.74442636 9.2019446,5.78169262 9.44481518,6.07053348 Z M12.8905668,4.52106227 L13.2056807,5.37590706 C13.3362051,5.72999537 13.1549708,6.12285163 12.8008825,6.25337608 C12.4467942,6.38390054 12.053938,6.20266622 11.9234135,5.84857792 L11.6082996,4.99373312 C11.4777751,4.63964482 11.6590095,4.24678855 12.0130978,4.1162641 C12.3671861,3.98573965 12.7600423,4.16697396 12.8905668,4.52106227 Z" id="Combined-Shape" fill="#5ED995" fill-rule="nonzero"></path>
    </g>
</svg>