<?xml version="1.0" encoding="UTF-8"?>
<svg width="30px" height="30px" viewBox="0 0 30 30" version="1.1" xmlns="http://www.w3.org/2000/svg" xmlns:xlink="http://www.w3.org/1999/xlink">
    <title>icon-pages-i</title>
    <g id="icon-pages-i" stroke="none" stroke-width="1" fill="none" fill-rule="evenodd">
        <path d="M18.1715729,3.25 C18.2305099,3.25 18.2892518,3.25189193 18.3477175,3.25564216 L18.3491218,3.25656168 L18.4790673,3.25 C18.952365,3.25 19.4084317,3.41712605 19.7683689,3.71869743 L19.8986852,3.83802499 L20.101,4.041 L20.1161165,4.05545635 L23.9445436,7.88388348 C23.9493937,7.88873356 23.9542238,7.89359989 23.9590339,7.89848234 L24.161975,8.10131484 C24.5384811,8.47782092 24.75,8.98847274 24.75,9.52093275 C24.75,9.56480254 24.7477773,9.6081532 24.7434383,9.65087824 L24.75,9.82842712 L24.75,20 C24.75,21.4625318 23.6082954,22.6584043 22.1675223,22.7449812 L22,22.75 L20.75,22.75 L20.75,24 C20.75,25.4625318 19.6082954,26.6584043 18.1675223,26.7449812 L18,26.75 L8,26.75 C6.53746816,26.75 5.34159572,25.6082954 5.25501879,24.1675223 L5.25,24 L5.25,10 C5.25,8.53746816 6.3917046,7.34159572 7.83247767,7.25501879 L8,7.25 L9.25,7.249 L9.25,6 C9.25,4.53746816 10.3917046,3.34159572 11.8324777,3.25501879 L12,3.25 L18.1715729,3.25 Z M9.25,8.749 L8,8.75 C7.35279131,8.75 6.8204661,9.24187466 6.75645361,9.87219476 L6.75,10 L6.75,24 C6.75,24.6472087 7.24187466,25.1795339 7.87219476,25.2435464 L8,25.25 L18,25.25 C18.6472087,25.25 19.1795339,24.7581253 19.2435464,24.1278052 L19.25,24 L19.25,22.75 L12,22.75 C10.5374682,22.75 9.34159572,21.6082954 9.25501879,20.1675223 L9.25,20 L9.25,8.749 Z M17.208,4.75 L12,4.75 C11.3527913,4.75 10.8204661,5.24187466 10.7564536,5.87219476 L10.75,6 L10.75,20 C10.75,20.6472087 11.2418747,21.1795339 11.8721948,21.2435464 L12,21.25 L22,21.25 C22.6472087,21.25 23.1795339,20.7581253 23.2435464,20.1278052 L23.25,20 L23.25,10.791 L19.9581345,10.7918655 C18.4956027,10.7918655 17.2997302,9.6501609 17.2131533,8.20938782 L17.2081345,8.04186549 L17.208,4.75 Z M18.7096431,4.87173496 L18.7081345,8.04186549 C18.7081345,8.64592694 19.136612,9.1499121 19.7062159,9.26646993 L19.8303293,9.28541188 L19.9581345,9.29186549 L23.1287298,9.29133265 C23.0882785,9.20631837 23.0381701,9.12575643 22.9791068,9.05134223 L22.8838835,8.94454365 L19.0554564,5.11611652 C18.953952,5.0146122 18.8367882,4.93236767 18.7096431,4.87173496 Z" id="Combined-Shape-Copy-3" fill="#8095A8" fill-rule="nonzero"></path>
    </g>
</svg>