<?xml version="1.0" encoding="UTF-8"?>
<svg width="30px" height="30px" viewBox="0 0 30 30" version="1.1" xmlns="http://www.w3.org/2000/svg" xmlns:xlink="http://www.w3.org/1999/xlink">
    <title>icon-rocket-s</title>
    <g id="icon-rocket-s" stroke="none" stroke-width="1" fill="none" fill-rule="evenodd">
        <path d="M12.0054996,21.1161634 C12.273985,21.3846489 12.2963588,21.8060485 12.0726209,22.1000196 L12.0054996,22.1768236 L10.5460937,23.6362294 C10.2532005,23.9291227 9.77832678,23.9291227 9.48543356,23.6362294 C9.21694811,23.367744 9.19457432,22.9463443 9.4183122,22.6523732 L9.48543356,22.5755693 L10.9448394,21.1161634 C11.2377326,20.8232702 11.7126064,20.8232702 12.0054996,21.1161634 Z M21.926045,7.00625433 C22.9067925,6.92452537 23.7680998,7.65332391 23.8498288,8.63407142 C23.8580359,8.73255632 23.8580359,8.83155327 23.8498288,8.93003817 L23.8498288,8.93003817 L23.6320668,11.5431822 C23.5092305,13.0172177 22.8678971,14.400001 21.8219699,15.4459282 L21.8219699,15.4459282 L19.7376002,17.5290826 L19.7632118,17.6337698 C20.022582,18.8249302 19.7043748,20.0889223 18.8684984,21.0203369 L18.8684984,21.0203369 L18.7244027,21.1724238 C18.6182156,21.2786108 18.5059003,21.3784872 18.3880712,21.4715101 L18.3880712,21.4715101 L17.2700339,22.3542874 C16.6467354,22.8464237 15.7424964,22.7401002 15.2503559,22.1168044 C15.1766968,22.0235152 15.1148888,21.921453 15.0663463,21.8129535 C15.0162349,21.7009473 14.9592137,21.5801295 14.8953053,21.4505829 L14.8953053,21.4505829 L14.682941,21.0358393 C14.6441109,20.9623785 14.6035647,20.8867562 14.5613051,20.8089828 L14.5613051,20.8089828 L14.3628815,20.4515549 L14.307337,20.4925339 C13.9164768,20.7431742 13.4010343,20.7203887 13.0328255,20.4241774 L13.0328255,20.4241774 L12.943998,20.3444282 L10.5116549,17.9120851 C10.1413908,17.541821 10.0920223,16.972178 10.3635307,16.5487647 L10.3635307,16.5487647 L10.4037907,16.492464 L10.0468027,16.2946547 C9.73574738,16.1256564 9.45909889,15.984061 9.21753039,15.870056 L9.21753039,15.870056 L9.04294203,15.7897283 C8.31799786,15.465436 7.99320905,14.6148603 8.31750509,13.8899184 C8.3660832,13.7813253 8.42794923,13.6791801 8.50168504,13.5858242 L8.50168504,13.5858242 L9.38454324,12.4680496 C10.315396,11.2889694 11.8231609,10.781324 13.2381755,11.0960211 L13.2381755,11.0960211 L13.3255559,11.1170383 L15.4101687,9.03409942 C16.3863545,8.05791363 17.6559915,7.43416188 19.0193833,7.25546313 L19.0193833,7.25546313 L19.3129009,7.22401633 Z M9.73973594,18.8503998 C10.0082214,19.1188852 10.0305952,19.5402848 9.8068573,19.834256 L9.73973594,19.9110599 L8.28033009,21.3704658 C7.98743687,21.663359 7.51256313,21.663359 7.21966991,21.3704658 C6.95118446,21.1019803 6.92881068,20.6805807 7.15254855,20.3866096 L7.21966991,20.3098056 L8.67907577,18.8503998 C8.97196899,18.5575065 9.44684272,18.5575065 9.73973594,18.8503998 Z M22.0506132,8.50107297 L19.4374692,8.71883497 C18.3169892,8.8122083 17.2658742,9.29971436 16.4707907,10.0947978 L16.4707907,10.0947978 L13.7183935,12.846798 L13.2610717,12.6669004 C12.3072376,12.2916885 11.2070916,12.580232 10.5617638,13.3976473 L10.5617638,13.3976473 L9.72779658,14.4531681 L9.85084312,14.510294 C9.9851438,14.5735765 10.1275418,14.6436817 10.2781119,14.7206278 L10.2781119,14.7206278 L10.7544136,14.9720068 L11.2801973,15.2645398 C11.3870969,15.3252438 11.4853181,15.4000749 11.5722395,15.4869869 C11.9816314,15.8963348 12.0779862,16.5002025 11.8612751,17.0011275 L11.8612751,17.0011275 L11.8158829,17.0942119 L13.7618408,19.0401698 L13.8401094,19.0015063 C14.4372769,18.7335136 15.1442571,18.9278913 15.5204313,19.4634874 L15.5204313,19.4634874 L15.5911249,19.5751203 L15.8838497,20.1011864 L16.135338,20.5776332 C16.2507963,20.8035358 16.3508435,21.0110203 16.4355584,21.2003702 L16.422,21.172 L16.4021775,21.127549 L17.4585671,20.2942157 L17.5638264,20.205994 L17.6637425,20.1117636 C18.3298818,19.4456243 18.5271263,18.4561474 18.1888122,17.5941597 L18.1888122,17.5941597 L18.0093994,17.1370352 L20.7613235,14.3852542 C21.5563688,13.590209 22.0438748,12.5390939 22.1372482,11.418614 L22.1372482,11.418614 L22.3550102,8.80546995 L22.3550102,8.75863964 C22.3420783,8.60345766 22.2057952,8.48814113 22.0506132,8.50107297 L22.0506132,8.50107297 Z M17.0006138,11.6651793 C17.6054531,11.06034 18.5860913,11.06034 19.1909306,11.6651793 C19.7957699,12.2700186 19.7957699,13.2506568 19.1909306,13.8554961 C18.5860913,14.4603354 17.6054531,14.4603354 17.0006138,13.8554961 C16.3957745,13.2506568 16.3957745,12.2700186 17.0006138,11.6651793 Z" id="Combined-Shape" fill="#5ED995" fill-rule="nonzero"></path>
    </g>
</svg>