<?xml version="1.0" encoding="UTF-8"?>
<svg width="30px" height="30px" viewBox="0 0 30 30" version="1.1" xmlns="http://www.w3.org/2000/svg" xmlns:xlink="http://www.w3.org/1999/xlink">
    <title>icon-dbs</title>
    <g id="icon-dbs" stroke="none" stroke-width="1" fill="none" fill-rule="evenodd">
        <path d="M11.375,2.75 C15.7673358,2.75 19.4189425,4.27029683 19.5756322,6.53539833 L19.5808703,6.6875 L19.581083,8.77436565 C23.5355975,8.9776724 26.6804674,10.4369005 26.8256322,12.5353983 L26.8308703,12.6875 L26.8308703,23.3125 C26.8308703,25.6613837 23.1149433,27.25 18.625,27.25 C14.2326642,27.25 10.5810575,25.7297032 10.4243678,23.4646017 L10.4191297,23.3125 L10.4195128,21.225665 C6.46471837,21.0224742 3.3195399,19.5632048 3.17436778,17.4646017 L3.16912968,17.3125 L3.16912968,6.6875 L3.17436778,6.53539833 C3.33105752,4.27029683 6.98266419,2.75 11.375,2.75 Z M11.9180928,20.3373723 L11.9191297,23.3125 C11.9191297,24.4844316 14.8794163,25.75 18.625,25.75 C22.2720157,25.75 25.1745219,24.5501641 25.3247598,23.4051907 L25.3308703,23.3125 L25.3308889,20.3380563 C23.8378253,21.3407882 21.3767796,21.9375 18.625,21.9375 C15.8725947,21.9375 13.4110555,21.3405168 11.9180928,20.3373723 Z M11.9180928,15.0248723 L11.9191297,18 C11.9191297,19.1719316 14.8794163,20.4375 18.625,20.4375 C22.2720157,20.4375 25.1745219,19.2376641 25.3247598,18.0926907 L25.3308703,18 L25.3308889,15.0255563 C23.8378253,16.0282882 21.3767796,16.625 18.625,16.625 C15.8725947,16.625 13.4110555,16.0280168 11.9180928,15.0248723 Z M4.66809275,14.3373723 L4.66912968,17.3125 C4.66912968,18.3827253 7.13789386,19.5310399 10.4189813,19.7222929 L10.4190446,15.9131409 C8.05816123,15.7917815 5.9858409,15.2227874 4.66809275,14.3373723 Z M18.625,10.25 C14.8794163,10.25 11.9191297,11.5155684 11.9191297,12.6875 C11.9191297,13.8594316 14.8794163,15.125 18.625,15.125 C22.3705837,15.125 25.3308703,13.8594316 25.3308703,12.6875 C25.3308703,11.5155684 22.3705837,10.25 18.625,10.25 Z M4.66809275,9.02487227 L4.66912968,12 C4.66912968,13.0702253 7.13789386,14.2185399 10.4189813,14.4097929 L10.4191297,12.6875 L10.4243678,12.5353983 C10.4742963,11.8136336 10.8790813,11.1674927 11.5496148,10.6220655 L11.375,10.625 L11.375,10.625 C8.62259469,10.625 6.1610555,10.0280168 4.66809275,9.02487227 Z M11.375,4.25 C7.62941632,4.25 4.66912968,5.51556837 4.66912968,6.6875 C4.66912968,7.85943163 7.62941632,9.125 11.375,9.125 C15.1205837,9.125 18.0808703,7.85943163 18.0808703,6.6875 C18.0808703,5.51556837 15.1205837,4.25 11.375,4.25 Z" id="Combined-Shape-Copy-4" fill="#FFFFFF" fill-rule="nonzero"></path>
    </g>
</svg>