<?xml version="1.0" encoding="UTF-8"?>
<svg width="30px" height="30px" viewBox="0 0 30 30" version="1.1" xmlns="http://www.w3.org/2000/svg" xmlns:xlink="http://www.w3.org/1999/xlink">
    <title>icon-file-w</title>
    <g id="icon-file-w" stroke="none" stroke-width="1" fill="none" fill-rule="evenodd">
        <path d="M16.1715729,5.25 C16.2305099,5.25 16.2892518,5.25189193 16.3477175,5.25564216 L16.3491218,5.25656168 L16.4790673,5.25 C17.0115273,5.25 17.5221791,5.46151891 17.8986852,5.83802499 L17.8986852,5.83802499 L18.101,6.041 L18.1161165,6.05545635 L21.9445436,9.88388348 C21.9490704,9.88841022 21.9535797,9.89295111 21.9580716,9.89750606 L22.161975,10.1013148 C22.5384811,10.4778209 22.75,10.9884727 22.75,11.5209327 C22.75,11.5648025 22.7477773,11.6081532 22.7434383,11.6508782 L22.75,11.8284271 L22.75,22 C22.75,23.5187831 21.5187831,24.75 20,24.75 L20,24.75 L10,24.75 C8.48121694,24.75 7.25,23.5187831 7.25,22 L7.25,22 L7.25,8 C7.25,6.48121694 8.48121694,5.25 10,5.25 L10,5.25 Z M15.208,6.75 L10,6.75 C9.30964406,6.75 8.75,7.30964406 8.75,8 L8.75,8 L8.75,22 C8.75,22.6903559 9.30964406,23.25 10,23.25 L10,23.25 L20,23.25 C20.6903559,23.25 21.25,22.6903559 21.25,22 L21.25,22 L21.25,12.791 L17.9581345,12.7918655 C16.4956027,12.7918655 15.2997302,11.6501609 15.2131533,10.2093878 L15.2081345,10.0418655 L15.208,6.75 Z M16.7096431,6.87173496 L16.7081345,10.0418655 C16.7081345,10.6890742 17.2000092,11.2213994 17.8303293,11.2854119 L17.8303293,11.2854119 L17.9581345,11.2918655 L21.1287298,11.2913327 C21.0680529,11.1638112 20.9856474,11.0463076 20.8838835,10.9445436 L20.8838835,10.9445436 L17.0554564,7.11611652 C16.953952,7.0146122 16.8367882,6.93236767 16.7096431,6.87173496 Z" id="Combined-Shape-Copy-3" fill="#FFFFFF" fill-rule="nonzero"></path>
    </g>
</svg>