<?xml version="1.0" encoding="UTF-8"?>
<svg width="30px" height="30px" viewBox="0 0 30 30" version="1.1" xmlns="http://www.w3.org/2000/svg" xmlns:xlink="http://www.w3.org/1999/xlink">
    <title>icon-logout-s</title>
    <g id="icon-logout-s" stroke="none" stroke-width="1" fill="none" fill-rule="evenodd">
        <path d="M13.1289031,7.62446982 C13.2669399,8.01500627 13.0622485,8.44349954 12.671712,8.58153632 C9.90981502,9.55774062 8.02538193,12.1772147 8.02538193,15.1547708 C8.02538193,19.0039949 11.1457946,22.1244075 14.9950186,22.1244075 C18.8442426,22.1244075 21.9646553,19.0039949 21.9646553,15.1547708 C21.9646553,12.1913985 20.098118,9.5816866 17.3551753,8.59467861 C16.9654265,8.4544332 16.7631641,8.02478802 16.9034095,7.63503926 C17.0436549,7.2452905 17.4733001,7.04302807 17.8630489,7.18327349 C21.1966736,8.38282982 23.4646553,11.5538238 23.4646553,15.1547708 C23.4646553,19.832422 19.6726698,23.6244075 14.9950186,23.6244075 C10.3173674,23.6244075 6.52538193,19.832422 6.52538193,15.1547708 C6.52538193,11.5365661 8.8150905,8.35373497 12.1718366,7.16727871 C12.5623731,7.02924193 12.9908664,7.23393336 13.1289031,7.62446982 Z M15.0004198,5.63256677 C15.3801155,5.63277942 15.6937527,5.91510891 15.7432102,6.28121221 L15.7499999,6.38298659 L15.7450187,15.2821616 C15.7447866,15.6963751 15.4088123,16.0319735 14.9945988,16.0317418 C14.6149031,16.0315291 14.3012659,15.7491996 14.2518084,15.3830963 L14.2450187,15.281322 L14.2500001,6.38214695 C14.250232,5.96793345 14.5862063,5.63233502 15.0004198,5.63256677 Z" id="Combined-Shape" fill="#5ED995" fill-rule="nonzero"></path>
    </g>
</svg>