<?xml version="1.0" encoding="UTF-8"?>
<svg width="30px" height="30px" viewBox="0 0 30 30" version="1.1" xmlns="http://www.w3.org/2000/svg" xmlns:xlink="http://www.w3.org/1999/xlink">
    <title>icon-darkalt-n</title>
    <g id="icon-darkalt-n" stroke="none" stroke-width="1" fill="none" fill-rule="evenodd">
        <path d="M22.0412663,11.1498244 C22.399159,10.7919317 23.001516,10.8840116 23.2361434,11.3324805 C25.0087014,14.7205629 24.400627,18.9094014 21.6550142,21.6550142 C18.9094014,24.400627 14.7205629,25.0087014 11.3324805,23.2361434 C10.8840116,23.001516 10.7919317,22.399159 11.1498244,22.0412663 L11.1498244,22.0412663 Z M23.6030888,7.23564655 C23.8715743,7.504132 23.893948,7.92553164 23.6702102,8.21950278 L23.6030888,8.29630672 L8.29630672,23.6030888 C8.00341351,23.895982 7.52853977,23.895982 7.23564655,23.6030888 C6.9671611,23.3346034 6.94478731,22.9132037 7.16852519,22.6192326 L7.23564655,22.5424286 L22.5424286,7.23564655 C22.8353219,6.94275333 23.3101956,6.94275333 23.6030888,7.23564655 Z M19.5062549,7.60259195 C19.8732741,7.794607 20.015143,8.2477938 19.8231279,8.614813 C19.6311129,8.98183221 19.1779261,9.12370111 18.8109069,8.93168606 C15.9998942,7.4610362 12.523002,7.96576058 10.2443813,10.2443813 C7.96576058,12.523002 7.4610362,15.9998942 8.93168606,18.8109069 C9.12370111,19.1779261 8.98183221,19.6311129 8.614813,19.8231279 C8.2477938,20.015143 7.794607,19.8732741 7.60259195,19.5062549 C5.83003399,16.1181725 6.43810834,11.9293339 9.18372113,9.18372113 C11.9293339,6.43810834 16.1181725,5.83003399 19.5062549,7.60259195 Z" id="Combined-Shape" fill="#FFFFFF" fill-rule="nonzero"></path>
    </g>
</svg>