<?xml version="1.0" encoding="UTF-8"?>
<svg width="30px" height="30px" viewBox="0 0 30 30" version="1.1" xmlns="http://www.w3.org/2000/svg" xmlns:xlink="http://www.w3.org/1999/xlink">
    <title>icon-diamond-s</title>
    <g id="icon-diamond-s" stroke="none" stroke-width="1" fill="none" fill-rule="evenodd">
        <path d="M22.1202184,5.07497211 C22.1249493,5.07497211 22.129674,5.07502053 22.1343919,5.07511706 C22.1574728,5.07540515 22.1805489,5.07703716 22.203639,5.07986266 C22.2186827,5.08184505 22.2336857,5.08417355 22.2485615,5.08698482 C22.2680171,5.09057686 22.2874224,5.0951359 22.3067542,5.10057884 C22.3225264,5.10503599 22.3381805,5.110034 22.3536202,5.11557556 C22.3577166,5.11705008 22.3616934,5.11852004 22.3656649,5.12002901 L22.4023607,5.13519057 C22.4168255,5.14166069 22.4310612,5.14862501 22.4450423,5.15607021 L22.3656649,5.12002901 C22.4174473,5.13970351 22.4654918,5.16492997 22.5093781,5.19477314 C22.518732,5.2013346 22.5278636,5.20788922 22.5368381,5.21466948 C22.5929175,5.2567218 22.6416866,5.30713687 22.6818382,5.36322845 L22.6856331,5.36870285 L26.599296,10.9379854 C26.6045466,10.9454571 26.6096314,10.9530044 26.6145507,10.9606225 C26.6241533,10.9753311 26.6331308,10.9904445 26.6415347,11.0059148 C26.6488933,11.0196955 26.6557698,11.0334596 26.6621566,11.0473814 C26.6702832,11.0647693 26.6777841,11.0831082 26.6845006,11.1018208 C26.6877861,11.1113619 26.6908196,11.1204254 26.6936591,11.1295328 C26.7008699,11.1522161 26.7069181,11.1759044 26.7117089,11.2000455 C26.7133992,11.2090177 26.714902,11.2174101 26.7162482,11.2258206 C26.7192671,11.2442574 26.7215342,11.2635241 26.7229927,11.2830162 C26.7238526,11.2948026 26.7244091,11.3058407 26.7247014,11.3168818 L26.724942,11.3353153 L26.724942,11.3353153 L26.7244038,11.3625835 C26.7235361,11.384547 26.7216238,11.4064679 26.7186703,11.4282674 L26.724942,11.3353153 C26.724942,11.3867229 26.7193288,11.4368194 26.7086818,11.4850254 C26.7060043,11.4965723 26.7030972,11.508262 26.6998816,11.5198824 C26.6941454,11.5411402 26.6872614,11.5620351 26.6794355,11.5824639 C26.6749051,11.5939784 26.66997,11.605894 26.6646895,11.6176902 C26.6567254,11.6356824 26.6481457,11.6528191 26.6388936,11.6695319 C26.6172195,11.7086556 26.5912185,11.7465457 26.5611002,11.7820872 L26.6173918,11.7057225 C26.6092048,11.7185927 26.6006038,11.7311737 26.5916074,11.7434468 L26.5611002,11.7820872 L15.6555213,24.6521792 C15.5848225,24.7474736 15.4939134,24.817806 15.393382,24.8631764 C15.3895664,24.863348 15.3862582,24.8648387 15.3829408,24.866302 C15.3584535,24.8783687 15.3329406,24.8876342 15.3070224,24.8953813 C15.2998239,24.8967751 15.292452,24.8989029 15.2850528,24.900906 C15.2615474,24.9077593 15.2377459,24.9127311 15.2137683,24.9164741 C15.2039963,24.9177892 15.1946492,24.9190883 15.1852833,24.9201966 C15.1673209,24.9224105 15.1488832,24.9238198 15.1304205,24.9245156 C15.1132606,24.925169 15.095952,24.9251996 15.0786618,24.9245865 C15.0616136,24.924003 15.0448605,24.9228291 15.0281648,24.9210665 C15.01751,24.9198112 15.0061721,24.9183093 14.9948703,24.916527 C14.9738125,24.9135018 14.9537112,24.9095 14.9338033,24.9046242 C14.9229896,24.9013598 14.9112926,24.8981074 14.899672,24.8945421 C14.7661072,24.8552094 14.6441069,24.7755089 14.5541264,24.6559819 L3.44305875,11.7869492 C3.4411263,11.7847111 3.4392104,11.7824636 3.43731105,11.7802066 C3.42004789,11.7597584 3.40371428,11.7379103 3.38869366,11.7151202 C3.38384363,11.7076852 3.37915219,11.7002535 3.37461498,11.6927536 C3.3245654,11.6101078 3.29145206,11.5164892 3.2797564,11.4163294 C3.27819658,11.402548 3.27700341,11.3889231 3.27621389,11.3752766 C3.27544706,11.3622927 3.275058,11.3488495 3.275058,11.3353153 C3.27535656,11.3072792 3.27639024,11.2881767 3.27821578,11.2691281 L3.275058,11.3353153 C3.275058,11.2949747 3.27851457,11.2554413 3.2851477,11.2169953 C3.28759722,11.203279 3.2903987,11.1895857 3.29362051,11.1759659 C3.29807959,11.1566957 3.30332582,11.1381014 3.30931219,11.1198425 C3.31376189,11.1065904 3.31876893,11.092776 3.324233,11.0790932 C3.33170916,11.0601107 3.33995076,11.0418804 3.34893883,11.0240915 C3.36647244,10.9895852 3.38697365,10.9561969 3.41057697,10.9242943 L3.36993787,10.9856209 C3.37916488,10.969924 3.3889941,10.9546237 3.39939381,10.9397517 L3.41057697,10.9242943 L7.52684466,5.36061894 C7.56873921,5.30266307 7.61987505,5.25084314 7.67912969,5.20765727 C7.6880522,5.20135053 7.69723662,5.19498041 7.70656379,5.18884029 C7.72330922,5.17766181 7.74078713,5.16724209 7.75883773,5.15754875 C7.77799141,5.1473217 7.79756376,5.13793954 7.81754819,5.12949186 C7.82518773,5.12625763 7.83311944,5.12307671 7.84114084,5.12002901 L7.85370313,5.11539116 C7.87078811,5.10927462 7.88813318,5.10382405 7.90569982,5.09905887 L7.84114084,5.12002901 C7.88111319,5.10484168 7.92161698,5.09360696 7.96222201,5.08613157 C8.00279684,5.07881467 8.04445205,5.07497211 8.08658734,5.07497211 L8.00250912,5.07994345 C8.02634691,5.0770031 8.0501706,5.07533511 8.07389326,5.07490042 L8.08658734,5.07497211 Z M19.001058,12.0259721 L11.204058,12.0259721 L15.102603,22.287784 L19.001058,12.0259721 Z M9.725058,12.0259721 L5.475058,12.0259721 L13.066058,20.8179721 L9.725058,12.0259721 Z M24.541058,12.0259721 L20.481058,12.0259721 L17.181058,20.7109721 L24.541058,12.0259721 Z M7.889058,7.19297211 L5.335058,10.6439721 L9.200058,10.6439721 L7.889058,7.19297211 Z M22.303058,7.22897211 L21.006058,10.6439721 L24.703058,10.6439721 L22.303058,7.22897211 Z M15.0159901,6.81631854 L11.780058,10.6439721 L18.464058,10.6439721 L15.0159901,6.81631854 Z M13.511058,6.45597211 L9.088058,6.45597211 L10.459058,10.0659721 L13.511058,6.45597211 Z M21.118058,6.45597211 L16.552058,6.45597211 L19.764058,10.0209721 L21.118058,6.45597211 Z" id="Combined-Shape-Copy-5" fill="#5ED995" fill-rule="nonzero"></path>
    </g>
</svg>