<?xml version="1.0" encoding="UTF-8"?>
<svg width="30px" height="30px" viewBox="0 0 30 30" version="1.1" xmlns="http://www.w3.org/2000/svg" xmlns:xlink="http://www.w3.org/1999/xlink">
    <title>icon-db-i</title>
    <g id="icon-db-i" stroke="none" stroke-width="1" fill="none" fill-rule="evenodd">
        <path d="M15,5.75 C19.4899433,5.75 23.2058703,7.33861635 23.2058703,9.6875 L23.2058703,9.6875 L23.2058703,20.3125 C23.2058703,22.6613837 19.4899433,24.25 15,24.25 C10.6076642,24.25 6.95605752,22.7297032 6.79936778,20.4646017 L6.79412968,20.3125 L6.79412968,9.6875 L6.79936778,9.53539833 C6.95605752,7.27029683 10.6076642,5.75 15,5.75 Z M15,18.9375 C12.2475947,18.9375 9.7860555,18.3405168 8.29309275,17.3373723 L8.29412968,20.3125 C8.29412968,21.4844316 11.2544163,22.75 15,22.75 C18.6470157,22.75 21.5495219,21.5501641 21.6997598,20.4051907 L21.7058703,20.3125 L21.7058889,17.3380563 C20.2128253,18.3407882 17.7517796,18.9375 15,18.9375 Z M21.7058889,12.0255563 C20.2128253,13.0282882 17.7517796,13.625 15,13.625 C12.2475947,13.625 9.7860555,13.0280168 8.29309275,12.0248723 L8.29412968,15 C8.29412968,16.1719316 11.2544163,17.4375 15,17.4375 C18.6470157,17.4375 21.5495219,16.2376641 21.6997598,15.0926907 L21.7058703,15 Z M15,7.25 C11.2544163,7.25 8.29412968,8.51556837 8.29412968,9.6875 C8.29412968,10.8594316 11.2544163,12.125 15,12.125 C18.7455837,12.125 21.7058703,10.8594316 21.7058703,9.6875 C21.7058703,8.51556837 18.7455837,7.25 15,7.25 Z" id="Combined-Shape-Copy-30" fill="#8095A8" fill-rule="nonzero"></path>
    </g>
</svg>