<?xml version="1.0" encoding="UTF-8"?>
<svg width="30px" height="30px" viewBox="0 0 30 30" version="1.1" xmlns="http://www.w3.org/2000/svg" xmlns:xlink="http://www.w3.org/1999/xlink">
    <title>icon-stop-i</title>
    <g id="icon-stop-i" stroke="none" stroke-width="1" fill="none" fill-rule="evenodd">
        <path d="M19,7.25 C21.0710678,7.25 22.75,8.92893219 22.75,11 L22.75,11 L22.75,19 C22.75,21.0710678 21.0710678,22.75 19,22.75 L19,22.75 L11,22.75 C8.92893219,22.75 7.25,21.0710678 7.25,19 L7.25,19 L7.25,11 C7.25,8.92893219 8.92893219,7.25 11,7.25 L11,7.25 Z M19,8.75 L11,8.75 C9.75735931,8.75 8.75,9.75735931 8.75,11 L8.75,11 L8.75,19 C8.75,20.2426407 9.75735931,21.25 11,21.25 L11,21.25 L19,21.25 C20.2426407,21.25 21.25,20.2426407 21.25,19 L21.25,19 L21.25,11 C21.25,9.75735931 20.2426407,8.75 19,8.75 L19,8.75 Z M14.9761135,12.6037593 C16.2995207,12.6037593 17.3723542,13.6765928 17.3723542,15 C17.3723542,16.3234072 16.2995207,17.3962407 14.9761135,17.3962407 C13.6527063,17.3962407 12.5798728,16.3234072 12.5798728,15 C12.5798728,13.6765928 13.6527063,12.6037593 14.9761135,12.6037593 Z" id="Combined-Shape" fill="#8095A8" fill-rule="nonzero"></path>
    </g>
</svg>