<?xml version="1.0" encoding="UTF-8"?>
<svg width="30px" height="30px" viewBox="0 0 30 30" version="1.1" xmlns="http://www.w3.org/2000/svg" xmlns:xlink="http://www.w3.org/1999/xlink">
    <title>icon-folder-b</title>
    <g id="icon-folder-b" stroke="none" stroke-width="1" fill="none" fill-rule="evenodd">
        <path d="M12.7896829,7.25 L8,7.25 C6.48121694,7.25 5.25,8.48121694 5.25,10 L5.25,20 C5.25,21.5187831 6.48121694,22.75 8,22.75 L23,22.75 C24.5187831,22.75 25.75,21.5187831 25.75,20 L25.75,12 C25.75,10.4812169 24.5187831,9.25 23,9.25 L15.0846869,9.25 C14.99439,9.25 14.9111103,9.20130744 14.8668224,9.12261745 L14.3147347,8.14167783 C14.0047193,7.5908479 13.4217614,7.25 12.7896829,7.25 Z M8,8.75 L12.7896829,8.75 C12.8799798,8.75 12.9632596,8.79869256 13.0075475,8.87738255 L13.5596351,9.85832217 C13.8696505,10.4091521 14.4526085,10.75 15.0846869,10.75 L23,10.75 C23.6903559,10.75 24.25,11.3096441 24.25,12 L24.25,20 C24.25,20.6903559 23.6903559,21.25 23,21.25 L8,21.25 C7.30964406,21.25 6.75,20.6903559 6.75,20 L6.75,10 C6.75,9.30964406 7.30964406,8.75 8,8.75 Z" id="Rectangle" fill="#131415" fill-rule="nonzero"></path>
    </g>
</svg>