<?xml version="1.0" encoding="UTF-8"?>
<svg width="30px" height="30px" viewBox="0 0 30 30" version="1.1" xmlns="http://www.w3.org/2000/svg" xmlns:xlink="http://www.w3.org/1999/xlink">
    <title>icon-pull-i</title>
    <g id="icon-pull-i" stroke="none" stroke-width="1" fill="none" fill-rule="evenodd">
        <path d="M15.2268217,7 C18.679607,7 21.4786426,9.79903555 21.4786426,13.2518209 L21.4786426,13.2518209 L21.477,13.2850083 L21.6627861,13.3077037 C23.724178,13.6039621 25.3238068,15.3296718 25.4248636,17.448024 L25.4248636,17.448024 L25.4299356,17.6611297 C25.4299356,20.0034052 23.5944827,21.9315099 21.2448825,22.0542003 L21.2448825,22.0542003 L21.0315525,22.0595128 L10.1132475,22.0595128 C7.28927887,22.0595128 5,19.7702339 5,16.9462653 C5,14.5039337 6.71857091,12.442662 9.03674743,11.9465211 L9.03674743,11.9465211 L9.115,11.9310083 L9.13964245,11.817985 C9.77389212,9.11191489 12.1553742,7.11063822 14.9896147,7.00443777 L14.9896147,7.00443777 Z M15.2268217,8.5 C12.8130702,8.5 10.7896487,10.3097789 10.5077802,12.6852443 C10.4656532,13.0402729 10.1787844,13.3162089 9.82238755,13.3445161 C7.95309495,13.4929866 6.5,15.0588392 6.5,16.9462653 C6.5,18.9418068 8.117706,20.5595128 10.1132475,20.5595128 L10.1132475,20.5595128 L21.0119843,20.5597681 L21.1861226,20.5554803 C22.7202269,20.475205 23.9299356,19.2044314 23.9299356,17.6611297 C23.9299356,16.0603969 22.6322853,14.7627465 21.0531331,14.762436 L21.0531331,14.762436 L20.8870647,14.7657044 L20.742825,14.779052 C20.2605576,14.8236798 19.8630755,14.4063197 19.9311659,13.9268021 C19.9626995,13.7047307 19.9786426,13.4793927 19.9786426,13.2518209 C19.9786426,10.6274627 17.8511799,8.5 15.2268217,8.5 Z M15.2507082,11.0512968 C15.630404,11.0512968 15.9441992,11.3334507 15.9938616,11.6995263 L16.0007082,11.8012968 L16,16.016 L17.1206319,15.0056321 L17.2083644,14.9374241 C17.5127635,14.7349163 17.9276372,14.7804619 18.179896,15.0600353 C18.4573807,15.367566 18.4330235,15.8418146 18.1254928,16.1192993 L18.1254928,16.1192993 L15.7531387,18.2598722 L15.6641575,18.328873 C15.3857722,18.5131182 15.0122378,18.4925044 14.7549043,18.2657805 L14.7549043,18.2657805 L12.325335,16.1252076 L12.247553,16.0458397 C12.011603,15.7665622 12.0094653,15.3492015 12.2583971,15.0666617 L12.2583971,15.0666617 L12.337765,14.9888796 C12.6170424,14.7529297 13.0344032,14.750792 13.316943,14.9997238 L13.316943,14.9997238 L14.5,16.042 L14.5007082,11.8012968 C14.5007082,11.3870833 14.8364947,11.0512968 15.2507082,11.0512968 Z" id="Combined-Shape" fill="#8095A8" fill-rule="nonzero"></path>
    </g>
</svg>