<?xml version="1.0" encoding="UTF-8"?>
<svg width="30px" height="30px" viewBox="0 0 30 30" version="1.1" xmlns="http://www.w3.org/2000/svg" xmlns:xlink="http://www.w3.org/1999/xlink">
    <title>icon-archive-s</title>
    <g id="icon-archive-s" stroke="none" stroke-width="1" fill="none" fill-rule="evenodd">
        <path d="M23.639756,15.0829906 C25.0336768,15.0829906 26.163673,16.2129868 26.163673,17.6069076 L26.163673,17.6069076 L26.163673,23.1136356 C26.163673,24.5075564 25.0336768,25.6375525 23.639756,25.6375525 L23.639756,25.6375525 L6.36024401,25.6375525 C4.96632316,25.6375525 3.83632704,24.5075564 3.83632704,23.1136356 L3.83632704,23.1136356 L3.83632704,17.6069076 C3.83632704,16.2129868 4.96632316,15.0829906 6.36024401,15.0829906 L6.36024401,15.0829906 Z M23.639756,16.4596726 L6.36024401,16.4596726 C5.72664362,16.4596726 5.21300902,16.9733072 5.21300902,17.6069076 L5.21300902,17.6069076 L5.21300902,23.1136356 C5.21300902,23.7472359 5.72664362,24.2608705 6.36024401,24.2608705 L6.36024401,24.2608705 L23.639756,24.2608705 C24.2733564,24.2608705 24.786991,23.7472359 24.786991,23.1136356 L24.786991,23.1136356 L24.786991,17.6069076 C24.786991,16.9733072 24.2733564,16.4596726 23.639756,16.4596726 L23.639756,16.4596726 Z M19.0105042,18.9431541 C19.3589845,18.9431541 19.6469819,19.2021115 19.6925615,19.5380913 L19.6988452,19.631495 L19.6988452,21.0029021 C19.6988452,21.7877967 19.0290583,22.3764511 18.2274466,22.4362405 L18.0927163,22.4412514 L11.9072837,22.4412514 C11.0926852,22.4412514 10.3800246,21.8939073 10.3072643,21.1318438 L10.3011548,21.0029021 L10.3011548,19.631495 C10.3011548,19.2513348 10.6093355,18.9431541 10.9894958,18.9431541 C11.337976,18.9431541 11.6259734,19.2021115 11.671553,19.5380913 L11.6778367,19.631495 L11.6778367,21.0029021 L11.714277,21.0245815 C11.7386308,21.0364247 11.7752519,21.0502494 11.8243211,21.0581499 L11.9072837,21.0645694 L18.0927163,21.0645694 C18.1850602,21.0645694 18.2491924,21.0423463 18.285723,21.0245815 L18.3221633,21.0029021 L18.3221633,19.631495 C18.3221633,19.2513348 18.630344,18.9431541 19.0105042,18.9431541 Z M21.345286,12.5424451 C21.7254462,12.5424451 22.033627,12.8506259 22.033627,13.2307861 C22.033627,13.5792663 21.7746696,13.8672638 21.4386898,13.9128433 L21.345286,13.9191271 L9.41404214,13.9191271 C9.03388191,13.9191271 8.72570115,13.6109463 8.72570115,13.2307861 C8.72570115,12.8823059 8.98465859,12.5943084 9.32063834,12.5487288 L9.41404214,12.5424451 L21.345286,12.5424451 Z M20.2626615,4.36244747 C21.3899776,4.36244747 22.3734186,5.10864506 22.6853935,6.17871942 L22.7253366,6.33374482 L24.2391996,13.0800717 C24.3224369,13.4510074 24.0892111,13.8191875 23.7182754,13.9024247 C23.3782509,13.9787256 23.040542,13.7891096 22.9225046,13.4712621 L22.8959223,13.3815005 L21.3820593,6.63517371 C21.272917,6.1487959 20.8641404,5.79308158 20.3764947,5.74474677 L20.2626615,5.73912945 L9.73733845,5.73912945 C9.23886538,5.73912945 8.80227939,6.0601025 8.64834584,6.52533258 L8.6179407,6.63517371 L7.10407773,13.3815005 C7.02084044,13.7524363 6.65266042,13.985662 6.28172464,13.9024247 C5.94170017,13.8261239 5.71739041,13.510392 5.74648064,13.1725849 L5.76080043,13.0800717 L7.27466339,6.33374482 C7.52149281,5.23378271 8.46491172,4.43758683 9.57732902,4.36747804 L9.73733845,4.36244747 L20.2626615,4.36244747 Z M20.4930543,9.77444951 C20.8732145,9.77444951 21.1813953,10.0826303 21.1813953,10.4627905 C21.1813953,10.8112707 20.9224379,11.0992682 20.5864581,11.1448478 L20.4930543,11.1511315 L10.2662738,11.1511315 C9.88611361,11.1511315 9.57793285,10.8429507 9.57793285,10.4627905 C9.57793285,10.1143103 9.8368903,9.82631283 10.17287,9.78073326 L10.2662738,9.77444951 L20.4930543,9.77444951 Z M19.6408226,7.02108554 C20.0209828,7.02108554 20.3291636,7.3292663 20.3291636,7.70942654 C20.3291636,8.05790675 20.0702062,8.34590421 19.7342264,8.39148379 L19.6408226,8.39776753 L11.1185055,8.39776753 C10.7383453,8.39776753 10.4301646,8.08958677 10.4301646,7.70942654 C10.4301646,7.36094632 10.689122,7.07294886 11.0251018,7.02736929 L11.1185055,7.02108554 L19.6408226,7.02108554 Z" id="Combined-Shape" fill="#5ED995" fill-rule="nonzero"></path>
    </g>
</svg>